<svg width="137" height="132" viewBox="0 0 137 132" fill="none" xmlns="http://www.w3.org/2000/svg">
<path d="M59.32 2.72C52.92 -2.784 45.688 2.4 40.824 6.816C34.616 12.384 29.368 18.912 25.08 26.272C25.144 26.208 25.144 26.208 25.144 26.144C27.32 18.656 29.432 10.848 31.48 3.168C31.672 2.464 30.392 2.016 30.264 1.952C29.88 1.888 29.688 2.08 29.56 2.336C27.32 9.888 25.144 17.632 23.096 25.12C21.816 29.6 20.472 34.272 19.192 38.88L19 39.2L19.128 39.264C19.384 39.84 20.408 40.224 20.536 40.288C20.6 40.288 20.664 40.352 20.728 40.352L21.176 40.608L21.304 39.968C24.632 31.264 29.112 23.456 34.744 16.736C36.92 14.112 48.056 1.12 55.096 2.272C57.592 2.656 59.384 4.768 60.408 8.48C62.776 17.376 53.688 27.04 48.12 32.032C38.2 40.864 28.984 44.64 20.664 43.232C20.344 43.168 20.152 43.36 20.024 43.616C19.96 44.192 21.112 44.96 21.432 44.96C22.776 45.216 24.056 45.344 25.4 45.344C36.792 45.344 47.16 36.704 52.728 31.136C57.464 26.336 63.096 18.144 63.16 11.168C63.096 7.776 61.88 4.96 59.32 2.72ZM71.3675 30.368C69.5115 30.496 67.3995 30.624 65.4155 31.264C64.3915 31.648 63.4315 32.16 62.4715 32.672C61.7675 33.056 60.9995 33.44 60.2315 33.76C60.1675 33.76 60.0395 33.824 59.9115 33.888C59.3355 34.144 58.6955 34.464 58.3115 34.272C58.0555 34.144 57.9275 33.952 57.7995 33.568C57.7355 33.12 58.6315 32.096 59.1435 31.584C59.3995 31.712 59.6555 31.84 59.7835 31.776C61.1275 31.2 65.2875 29.216 64.7115 27.552C64.5195 27.04 63.3675 26.08 62.7915 26.208C60.4235 26.592 56.3915 29.472 55.7515 32.224C55.4955 33.504 56.0075 34.592 57.2235 35.36C57.9275 35.872 58.6315 36.064 59.3995 36.064C60.6155 36.064 61.8315 35.488 62.9835 34.976C66.5035 33.312 68.9995 32.416 72.5195 32.096C72.6475 32.16 72.7755 32.224 72.9035 32.224C73.0315 32.224 73.0955 32.16 73.1595 32.16L73.2875 31.968C73.3515 31.904 73.3515 31.776 73.2875 31.584C73.0315 31.136 71.6875 30.368 71.3675 30.368ZM79.637 26.976C79.701 26.976 79.701 26.976 79.765 26.976C81.813 26.656 83.861 26.4 85.845 26.144C83.285 32.544 81.237 39.072 79.445 45.152C79.125 45.984 80.661 46.56 80.725 46.56C80.853 46.56 80.917 46.624 81.045 46.624C81.365 46.624 81.493 46.304 81.493 46.24C83.541 39.904 85.973 32.864 88.917 25.76C94.421 25.184 99.477 24.864 104.277 24.928H104.597V24.608C104.597 24.288 103.637 23.392 103.189 23.392C98.453 23.328 94.037 23.456 89.813 23.84C91.413 20.128 93.141 16.48 95.125 12.768C100.117 3.68 112.853 3.04 123.029 2.528C124.565 2.464 126.101 2.4 127.509 2.272H127.957L127.893 1.824C127.893 1.44 126.869 0.415997 126.293 0.415997C126.293 0.415997 126.293 0.415997 126.229 0.415997C119.829 0.607998 113.237 1.376 106.773 2.592C101.205 3.616 97.045 4.768 93.909 9.696C91.157 14.176 88.725 19.104 86.613 24.16C83.797 24.544 81.109 24.928 78.485 25.44L78.165 25.504L78.229 25.824C78.293 26.144 79.061 26.976 79.637 26.976ZM106.771 31.648C106.899 31.392 107.091 31.136 107.219 30.88C107.283 30.752 107.283 30.624 107.219 30.496C107.027 30.176 106.323 29.728 106.003 29.728C105.747 29.664 105.683 29.792 105.619 29.856C105.619 29.92 105.555 30.048 105.491 30.176C104.723 31.52 103.123 34.976 100.051 34.656C100.051 34.464 100.051 34.336 100.051 34.144V34.08C100.115 33.504 100.051 33.12 100.243 32.544C100.307 32.48 100.307 32.416 100.307 32.352C100.755 31.008 101.459 29.792 102.035 28.768C102.163 28.512 101.779 28.256 101.331 28C101.075 27.808 100.499 27.424 100.243 27.744C98.963 29.536 98.131 31.584 97.875 33.44C97.811 34.144 97.811 35.168 99.091 35.936C99.603 36.256 100.115 36.384 100.691 36.384C101.779 36.384 102.931 35.872 103.635 35.424C105.043 34.464 105.875 33.056 106.771 31.648ZM102.035 27.488C102.099 27.488 102.099 27.488 102.163 27.488C102.995 27.168 103.315 26.592 102.995 25.888C102.867 25.568 102.419 25.248 102.099 25.056C101.843 24.992 101.651 24.928 101.523 24.992C101.203 25.12 101.011 25.312 100.819 25.504C100.755 25.504 100.755 25.504 100.691 25.568C100.499 25.632 100.371 25.76 100.179 26.016C100.179 26.08 100.051 26.272 100.371 26.592C100.627 26.848 101.587 27.488 102.035 27.488ZM112.579 15.136C112.259 14.944 111.811 14.752 111.683 15.008C109.123 19.104 107.011 23.52 105.539 27.744C103.875 32.736 103.107 37.408 103.299 41.632C103.299 41.952 104.323 42.592 104.643 42.656H104.707C104.835 42.656 104.835 42.592 104.835 42.528C105.411 40.544 105.795 38.496 106.115 36.512C106.627 34.016 107.075 31.52 107.843 29.024C109.123 25.12 110.851 21.216 113.539 16.288C113.731 15.968 112.963 15.392 112.579 15.136ZM12.8223 106.792C12.6943 106.472 12.3103 105.96 11.9263 105.896C11.7983 105.896 11.6063 105.96 11.5423 106.088C11.2223 106.728 9.75025 108.456 7.83025 109.864C5.01425 111.912 3.28625 111.784 2.32625 111.272C2.26225 111.272 2.26225 111.208 2.26225 111.144C2.19825 110.952 2.26225 110.376 3.28625 108.84C3.54225 109.096 3.92625 109.288 4.18225 109.224C6.29425 108.52 8.15025 106.856 9.30225 104.488C9.36625 104.36 9.36625 104.168 9.30225 104.04C9.11025 103.656 8.21425 103.272 8.08625 103.208C5.78225 102.632 3.86225 104.872 2.39025 106.856L2.32625 106.92C1.30225 108.264 -0.55375 110.76 1.04625 112.36C1.62225 112.936 2.39025 113.192 3.41425 113.192C3.54225 113.192 3.67025 113.192 3.79825 113.192C4.88625 113.128 5.97425 112.744 6.48625 112.552C8.91825 111.592 10.8383 109.544 12.8223 107.24C12.8863 107.176 12.9503 107.048 12.8223 106.792ZM4.95025 107.176C4.75825 106.728 6.03825 104.808 6.80625 105.32C6.48625 105.64 5.33425 106.792 4.95025 107.176ZM29.1273 108.904C27.5273 108.968 25.7993 109.416 24.1353 109.864C22.1513 110.44 20.0393 111.016 18.0553 110.824C18.0553 110.248 18.1833 109.672 18.2473 109.032C18.5673 107.304 18.9513 105.512 16.5193 104.744C15.7513 104.552 14.9193 104.68 14.1513 105.128C14.0233 105 13.8313 104.872 13.7673 104.808C13.5753 104.68 13.1273 104.424 12.8713 104.616C10.8873 106.664 9.41525 109.416 8.07125 112.04C7.87925 112.36 7.68725 112.744 7.49525 113.064C7.49525 113.128 7.49525 113.128 7.49525 113.128C7.30325 113.448 7.94325 113.96 8.39125 114.216C8.58325 114.344 9.03125 114.6 9.28725 114.6C9.41525 114.6 9.47925 114.6 9.54325 114.536C9.92725 114.024 10.3113 113.448 10.6953 112.936C11.6553 111.656 12.6153 110.376 13.6393 109.16C13.7033 109.096 13.7673 108.968 13.8953 108.84C14.3433 108.264 15.4313 106.92 15.8153 106.984C16.1353 106.984 16.1993 107.048 16.2633 107.112C16.2633 107.112 16.2633 107.24 16.1993 107.368C16.1353 107.496 16.0713 107.688 16.0713 108.008C16.0713 108.456 16.0713 108.84 16.0073 109.224C15.8793 110.12 15.8153 110.888 17.0312 111.72C18.3753 112.68 20.1673 112.424 21.6393 112.232C21.7673 112.232 21.8953 112.232 21.9593 112.232C22.2793 112.168 22.6633 112.104 22.9833 112.104C25.4792 111.784 28.6153 111.4 30.6633 110.184C30.7273 110.12 30.7273 110.056 30.7273 109.992C30.5993 109.672 29.4473 108.904 29.1273 108.904ZM69.3608 76.648C63.9848 73.832 58.0968 80.68 54.8968 84.328L54.4488 84.904C50.0968 89.896 46.0008 95.592 42.2888 101.8C38.4488 102.696 34.9928 103.592 31.6647 104.616L31.4087 104.744L31.4727 105C31.5367 105.384 32.4967 106.216 33.0087 106.088L40.6888 104.552C38.8328 107.752 37.1688 111.016 35.6328 114.28C35.3768 114.856 36.6568 115.496 36.6568 115.496C37.1048 115.688 37.4248 115.688 37.5528 115.432C39.6008 111.336 41.6488 107.56 43.8248 103.912C51.8248 102.312 59.8248 100.648 67.8248 99.048L68.1448 98.984L68.0808 98.728C68.0168 98.408 67.1208 97.576 66.6728 97.64C59.5048 98.408 52.4648 99.56 45.6168 101.032C47.1528 98.6 48.7528 96.296 50.2888 94.12C50.7368 93.48 51.1848 92.84 51.6968 92.136C55.2808 87.016 60.2088 80.104 65.6488 78.376C67.3768 77.864 68.5928 77.992 69.4888 78.888C73.5208 82.92 68.3368 100.2 66.6728 105.448C64.3048 112.808 61.2968 120.168 58.4168 127.208L57.2008 130.152C56.8808 130.856 58.4168 131.56 58.4168 131.56C58.6088 131.624 58.7368 131.688 58.8648 131.688C59.0568 131.688 59.1208 131.624 59.1848 131.432C64.1128 120.104 68.7208 108.904 71.4728 97.128C71.6007 96.552 71.7928 95.912 71.9208 95.272C73.4568 89.192 75.7608 80.04 69.3608 76.648ZM79.8648 108.648C79.9928 108.392 80.1848 108.136 80.3128 107.88C80.3767 107.752 80.3767 107.624 80.3128 107.496C80.1208 107.176 79.4167 106.728 79.0968 106.728C78.8408 106.664 78.7768 106.792 78.7128 106.856C78.7128 106.92 78.6488 107.048 78.5848 107.176C77.8168 108.52 76.2168 111.976 73.1448 111.656C73.1448 111.464 73.1448 111.336 73.1448 111.144V111.08C73.2088 110.504 73.1448 110.12 73.3368 109.544C73.4008 109.48 73.4008 109.416 73.4008 109.352C73.8488 108.008 74.5528 106.792 75.1288 105.768C75.2568 105.512 74.8728 105.256 74.4248 105C74.1688 104.808 73.5928 104.424 73.3368 104.744C72.0568 106.536 71.2248 108.584 70.9688 110.44C70.9047 111.144 70.9047 112.168 72.1848 112.936C72.6968 113.256 73.2088 113.384 73.7848 113.384C74.8728 113.384 76.0248 112.872 76.7288 112.424C78.1368 111.464 78.9688 110.056 79.8648 108.648ZM75.1288 104.488C75.1927 104.488 75.1927 104.488 75.2568 104.488C76.0888 104.168 76.4088 103.592 76.0888 102.888C75.9608 102.568 75.5128 102.248 75.1927 102.056C74.9368 101.992 74.7448 101.928 74.6168 101.992C74.2968 102.12 74.1048 102.312 73.9128 102.504C73.8488 102.504 73.8488 102.504 73.7848 102.568C73.5928 102.632 73.4648 102.76 73.2728 103.016C73.2728 103.08 73.1448 103.272 73.4648 103.592C73.7208 103.848 74.6808 104.488 75.1288 104.488ZM91.6203 107.432C91.5563 107.432 90.7243 106.6 90.3403 106.984C87.9723 109.224 86.0523 111.208 83.9403 113.512C84.3883 111.976 84.9003 110.248 85.7963 108.648C86.4363 107.816 87.0123 106.984 87.3323 106.344C87.5243 105.896 86.8843 105.384 86.5642 105.192C86.0523 104.872 85.6683 104.808 85.4763 105.064C84.8363 105.896 84.2603 106.792 83.7483 107.752C82.7243 109.096 80.7403 111.272 78.5643 111.272C78.7563 108.2 84.0683 105.832 84.7083 105.576C84.8363 105.512 84.9643 105.384 84.9003 105.128C84.7723 104.808 83.9403 104.104 83.4923 104.232C81.6363 104.872 77.0922 107.368 76.5802 109.928C76.3882 110.76 76.6442 111.528 77.4123 112.168C78.6283 113.256 80.2923 113.256 82.1483 112.04C81.8283 113.32 81.5083 114.664 81.2523 115.88L81.0603 116.776C79.2043 118.888 77.1562 121.832 77.7963 125.736C77.8603 126.056 78.7563 126.824 79.2043 126.888C79.2682 126.888 79.3323 126.888 79.3323 126.888C79.5883 126.888 79.6523 126.76 79.7163 126.76C81.7003 123.752 82.4043 120.36 83.1083 117.352C84.7083 115.368 86.4363 113.64 88.1003 112.04C89.4443 110.696 90.7243 109.416 91.8123 108.2C92.0043 108.008 91.9403 107.752 91.6203 107.432ZM101.459 105.896C101.139 106.152 100.691 106.664 100.115 107.24C99.2833 108.136 98.2593 109.224 97.4273 110.056C97.4913 109.8 97.6193 109.608 97.6833 109.416C97.8113 109.16 97.9392 108.904 98.0033 108.648L98.4513 107.624C98.8353 106.6 99.2833 105.512 99.7313 104.488C99.9873 103.784 98.5153 103.144 98.5153 103.144C98.0673 102.888 97.8113 102.952 97.6833 103.208C96.2113 105.896 94.4833 108.264 92.4353 110.12L92.3073 110.248C91.0273 111.464 90.6432 111.592 90.6432 111.592C90.5793 111.528 90.4513 111.144 91.4113 109.416L91.4753 109.224C91.8593 108.456 92.3073 107.688 92.6913 106.92C93.0753 106.28 93.4593 105.64 93.7793 104.936C94.0353 104.488 93.2673 103.976 93.0113 103.784C92.4993 103.528 92.1153 103.464 91.9873 103.72C91.8593 103.912 91.6673 104.104 91.5393 104.296C90.1313 106.216 88.0192 109.16 88.6593 111.272C88.8513 112.04 89.4913 112.68 90.4513 113.064C90.7713 113.192 91.1553 113.256 91.4753 113.256C92.8193 113.256 93.9073 112.168 94.8673 111.208C94.9313 111.528 95.1233 111.784 95.4433 112.168C96.0833 112.808 96.8513 113.064 97.5553 112.872C98.1313 112.68 98.6433 112.04 99.0273 111.528C99.1553 111.336 99.2833 111.208 99.4113 111.08C99.7313 110.696 100.307 110.12 100.883 109.48C101.779 108.584 102.675 107.688 103.123 107.176C103.315 106.984 103.187 106.664 102.867 106.344C102.803 106.344 101.907 105.448 101.459 105.896ZM109.052 108.648C109.18 108.392 109.372 108.136 109.5 107.88C109.564 107.752 109.564 107.624 109.5 107.496C109.308 107.176 108.604 106.728 108.284 106.728C108.028 106.664 107.964 106.792 107.9 106.856C107.9 106.92 107.836 107.048 107.772 107.176C107.004 108.52 105.404 111.976 102.332 111.656C102.332 111.464 102.332 111.336 102.332 111.144V111.08C102.396 110.504 102.332 110.12 102.524 109.544C102.588 109.48 102.588 109.416 102.588 109.352C103.036 108.008 103.74 106.792 104.316 105.768C104.444 105.512 104.06 105.256 103.612 105C103.356 104.808 102.78 104.424 102.524 104.744C101.244 106.536 100.412 108.584 100.156 110.44C100.092 111.144 100.092 112.168 101.372 112.936C101.884 113.256 102.396 113.384 102.972 113.384C104.06 113.384 105.212 112.872 105.916 112.424C107.324 111.464 108.156 110.056 109.052 108.648ZM104.316 104.488C104.38 104.488 104.38 104.488 104.444 104.488C105.276 104.168 105.596 103.592 105.276 102.888C105.148 102.568 104.7 102.248 104.38 102.056C104.124 101.992 103.932 101.928 103.804 101.992C103.484 102.12 103.292 102.312 103.1 102.504C103.036 102.504 103.036 102.504 102.972 102.568C102.78 102.632 102.652 102.76 102.46 103.016C102.46 103.08 102.332 103.272 102.652 103.592C102.908 103.848 103.868 104.488 104.316 104.488ZM115.436 105.96C115.052 105.768 114.86 105.896 114.732 106.024C113.708 107.816 111.276 110.312 109.484 112.104C109.228 112.36 109.036 112.616 108.78 112.808C108.652 110.44 110.188 106.28 110.956 104.168C111.084 103.848 111.212 103.464 111.276 103.208C112.108 100.904 113.132 98.6 114.156 96.36C114.668 95.272 115.18 94.184 115.628 93.032C115.82 92.52 114.86 91.944 114.86 91.944C114.412 91.752 114.22 91.88 114.156 92.008C111.532 95.912 109.42 100.904 107.82 107.368C107.756 107.688 107.628 108.072 107.564 108.392C106.924 110.632 106.284 113 108.268 114.792C108.588 115.048 108.972 115.368 109.356 115.368C109.42 115.368 109.548 115.304 109.612 115.24C109.868 115.048 110.06 114.792 110.316 114.6C112.492 112.488 115.436 109.608 116.396 107.176C116.652 106.6 115.5 105.96 115.436 105.96ZM122.124 105.96C121.74 105.768 121.548 105.896 121.42 106.024C120.396 107.816 117.964 110.312 116.172 112.104C115.916 112.36 115.724 112.616 115.468 112.808C115.34 110.44 116.876 106.28 117.644 104.168C117.772 103.848 117.9 103.464 117.964 103.208C118.796 100.904 119.82 98.6 120.844 96.36C121.356 95.272 121.868 94.184 122.316 93.032C122.508 92.52 121.548 91.944 121.548 91.944C121.1 91.752 120.908 91.88 120.844 92.008C118.22 95.912 116.108 100.904 114.508 107.368C114.444 107.688 114.316 108.072 114.252 108.392C113.612 110.632 112.972 113 114.956 114.792C115.276 115.048 115.66 115.368 116.044 115.368C116.108 115.368 116.236 115.304 116.3 115.24C116.556 115.048 116.748 114.792 117.004 114.6C119.18 112.488 122.124 109.608 123.084 107.176C123.34 106.6 122.188 105.96 122.124 105.96ZM134.649 107.368C132.793 107.496 130.681 107.624 128.697 108.264C127.673 108.648 126.713 109.16 125.753 109.672C125.049 110.056 124.281 110.44 123.513 110.76C123.449 110.76 123.321 110.824 123.193 110.888C122.617 111.144 121.977 111.464 121.593 111.272C121.337 111.144 121.209 110.952 121.081 110.568C121.017 110.12 121.913 109.096 122.425 108.584C122.681 108.712 122.937 108.84 123.065 108.776C124.409 108.2 128.569 106.216 127.993 104.552C127.801 104.04 126.649 103.08 126.073 103.208C123.705 103.592 119.673 106.472 119.033 109.224C118.777 110.504 119.289 111.592 120.505 112.36C121.209 112.872 121.913 113.064 122.681 113.064C123.897 113.064 125.113 112.488 126.265 111.976C129.785 110.312 132.281 109.416 135.801 109.096C135.929 109.16 136.057 109.224 136.185 109.224C136.313 109.224 136.377 109.16 136.441 109.16L136.569 108.968C136.633 108.904 136.633 108.776 136.569 108.584C136.313 108.136 134.969 107.368 134.649 107.368Z" fill="#EF8F8C"/>
</svg>
