<svg width="205" height="198" viewBox="0 0 205 198" fill="none" xmlns="http://www.w3.org/2000/svg">
<path d="M88.98 4.08C79.38 -4.176 68.532 3.6 61.236 10.224C51.924 18.576 44.052 28.368 37.62 39.408C37.716 39.312 37.716 39.312 37.716 39.216C40.98 27.984 44.148 16.272 47.22 4.752C47.508 3.696 45.588 3.024 45.396 2.928C44.82 2.832 44.532 3.12 44.34 3.504C40.98 14.832 37.716 26.448 34.644 37.68C32.724 44.4 30.708 51.408 28.788 58.32L28.5 58.8L28.692 58.896C29.076 59.76 30.612 60.336 30.804 60.432C30.9 60.432 30.996 60.528 31.092 60.528L31.764 60.912L31.956 59.952C36.948 46.896 43.668 35.184 52.116 25.104C55.38 21.168 72.084 1.68 82.644 3.408C86.388 3.984 89.076 7.152 90.612 12.72C94.164 26.064 80.532 40.56 72.18 48.048C57.3 61.296 43.476 66.96 30.996 64.848C30.516 64.752 30.228 65.04 30.036 65.424C29.94 66.288 31.668 67.44 32.148 67.44C34.164 67.824 36.084 68.016 38.1 68.016C55.188 68.016 70.74 55.056 79.092 46.704C86.196 39.504 94.644 27.216 94.74 16.752C94.644 11.664 92.82 7.44 88.98 4.08ZM107.051 45.552C104.267 45.744 101.099 45.936 98.1233 46.896C96.5873 47.472 95.1473 48.24 93.7073 49.008C92.6513 49.584 91.4993 50.16 90.3473 50.64C90.2513 50.64 90.0593 50.736 89.8672 50.832C89.0033 51.216 88.0433 51.696 87.4673 51.408C87.0833 51.216 86.8913 50.928 86.6992 50.352C86.6033 49.68 87.9473 48.144 88.7153 47.376C89.0993 47.568 89.4833 47.76 89.6753 47.664C91.6913 46.8 97.9313 43.824 97.0673 41.328C96.7793 40.56 95.0513 39.12 94.1873 39.312C90.6353 39.888 84.5873 44.208 83.6273 48.336C83.2432 50.256 84.0113 51.888 85.8353 53.04C86.8913 53.808 87.9473 54.096 89.0993 54.096C90.9233 54.096 92.7473 53.232 94.4753 52.464C99.7553 49.968 103.499 48.624 108.779 48.144C108.971 48.24 109.163 48.336 109.355 48.336C109.547 48.336 109.643 48.24 109.739 48.24L109.931 47.952C110.027 47.856 110.027 47.664 109.931 47.376C109.547 46.704 107.531 45.552 107.051 45.552ZM119.456 40.464C119.552 40.464 119.552 40.464 119.648 40.464C122.72 39.984 125.792 39.6 128.768 39.216C124.928 48.816 121.855 58.608 119.168 67.728C118.688 68.976 120.992 69.84 121.088 69.84C121.28 69.84 121.376 69.936 121.568 69.936C122.048 69.936 122.24 69.456 122.24 69.36C125.312 59.856 128.96 49.296 133.376 38.64C141.632 37.776 149.216 37.296 156.416 37.392H156.896V36.912C156.896 36.432 155.456 35.088 154.784 35.088C147.68 34.992 141.056 35.184 134.72 35.76C137.12 30.192 139.712 24.72 142.688 19.152C150.176 5.52 169.28 4.56 184.544 3.792C186.848 3.696 189.152 3.6 191.264 3.408H191.936L191.84 2.736C191.84 2.16 190.304 0.623995 189.44 0.623995C189.44 0.623995 189.44 0.623995 189.344 0.623995C179.744 0.911997 169.856 2.064 160.16 3.888C151.808 5.424 145.568 7.152 140.864 14.544C136.736 21.264 133.088 28.656 129.92 36.24C125.696 36.816 121.664 37.392 117.727 38.16L117.247 38.256L117.343 38.736C117.439 39.216 118.591 40.464 119.456 40.464ZM160.157 47.472C160.349 47.088 160.637 46.704 160.829 46.32C160.924 46.128 160.924 45.936 160.829 45.744C160.541 45.264 159.484 44.592 159.005 44.592C158.621 44.496 158.525 44.688 158.429 44.784C158.429 44.88 158.333 45.072 158.237 45.264C157.085 47.28 154.685 52.464 150.077 51.984C150.077 51.696 150.077 51.504 150.077 51.216V51.12C150.173 50.256 150.077 49.68 150.365 48.816C150.461 48.72 150.461 48.624 150.461 48.528C151.133 46.512 152.189 44.688 153.053 43.152C153.245 42.768 152.669 42.384 151.997 42C151.613 41.712 150.749 41.136 150.365 41.616C148.445 44.304 147.197 47.376 146.812 50.16C146.716 51.216 146.716 52.752 148.637 53.904C149.405 54.384 150.173 54.576 151.037 54.576C152.669 54.576 154.397 53.808 155.453 53.136C157.565 51.696 158.812 49.584 160.157 47.472ZM153.053 41.232C153.148 41.232 153.148 41.232 153.245 41.232C154.493 40.752 154.973 39.888 154.493 38.832C154.301 38.352 153.629 37.872 153.148 37.584C152.765 37.488 152.477 37.392 152.285 37.488C151.805 37.68 151.517 37.968 151.229 38.256C151.133 38.256 151.133 38.256 151.037 38.352C150.749 38.448 150.557 38.64 150.269 39.024C150.269 39.12 150.077 39.408 150.557 39.888C150.941 40.272 152.381 41.232 153.053 41.232ZM168.869 22.704C168.389 22.416 167.717 22.128 167.525 22.512C163.685 28.656 160.517 35.28 158.309 41.616C155.812 49.104 154.66 56.112 154.948 62.448C154.948 62.928 156.485 63.888 156.965 63.984H157.061C157.253 63.984 157.253 63.888 157.253 63.792C158.117 60.816 158.693 57.744 159.173 54.768C159.941 51.024 160.613 47.28 161.765 43.536C163.685 37.68 166.277 31.824 170.309 24.432C170.597 23.952 169.445 23.088 168.869 22.704ZM19.2334 159.688C19.0414 159.208 18.4654 158.44 17.8894 158.344C17.6974 158.344 17.4094 158.44 17.3134 158.632C16.8334 159.592 14.6254 162.184 11.7454 164.296C7.52138 167.368 4.92938 167.176 3.48938 166.408C3.39338 166.408 3.39338 166.312 3.39338 166.216C3.29738 165.928 3.39338 165.064 4.92938 162.76C5.31338 163.144 5.88938 163.432 6.27338 163.336C9.44138 162.28 12.2254 159.784 13.9534 156.232C14.0494 156.04 14.0494 155.752 13.9534 155.56C13.6654 154.984 12.3214 154.408 12.1294 154.312C8.67338 153.448 5.79338 156.808 3.58538 159.784L3.48938 159.88C1.95338 161.896 -0.830625 165.64 1.56938 168.04C2.43338 168.904 3.58538 169.288 5.12138 169.288C5.31338 169.288 5.50538 169.288 5.69738 169.288C7.32938 169.192 8.96138 168.616 9.72938 168.328C13.3774 166.888 16.2574 163.816 19.2334 160.36C19.3294 160.264 19.4254 160.072 19.2334 159.688ZM7.42538 160.264C7.13738 159.592 9.05738 156.712 10.2094 157.48C9.72938 157.96 8.00138 159.688 7.42538 160.264ZM43.6909 162.856C41.2909 162.952 38.6989 163.624 36.2029 164.296C33.2269 165.16 30.0589 166.024 27.0829 165.736C27.0829 164.872 27.2749 164.008 27.3709 163.048C27.8509 160.456 28.4269 157.768 24.7789 156.616C23.6269 156.328 22.3789 156.52 21.2269 157.192C21.0349 157 20.7469 156.808 20.6509 156.712C20.3629 156.52 19.6909 156.136 19.3069 156.424C16.3309 159.496 14.1229 163.624 12.1069 167.56C11.8189 168.04 11.5309 168.616 11.2429 169.096C11.2429 169.192 11.2429 169.192 11.2429 169.192C10.9549 169.672 11.9149 170.44 12.5869 170.824C12.8749 171.016 13.5469 171.4 13.9309 171.4C14.1229 171.4 14.2189 171.4 14.3149 171.304C14.8909 170.536 15.4669 169.672 16.0429 168.904C17.4829 166.984 18.9229 165.064 20.4589 163.24C20.5549 163.144 20.6509 162.952 20.8429 162.76C21.5149 161.896 23.1469 159.88 23.7229 159.976C24.2029 159.976 24.2989 160.072 24.3949 160.168C24.3949 160.168 24.3949 160.36 24.2989 160.552C24.2029 160.744 24.1069 161.032 24.1069 161.512C24.1069 162.184 24.1069 162.76 24.0109 163.336C23.8189 164.68 23.7229 165.832 25.5469 167.08C27.5629 168.52 30.2509 168.136 32.4589 167.848C32.6509 167.848 32.8429 167.848 32.9389 167.848C33.4189 167.752 33.9949 167.656 34.4749 167.656C38.2189 167.176 42.9229 166.6 45.9949 164.776C46.0909 164.68 46.0909 164.584 46.0909 164.488C45.8989 164.008 44.1709 162.856 43.6909 162.856ZM104.041 114.472C95.9771 110.248 87.1451 120.52 82.3451 125.992L81.6731 126.856C75.1451 134.344 69.0011 142.888 63.4331 152.2C57.6731 153.544 52.4891 154.888 47.4971 156.424L47.1131 156.616L47.2091 157C47.3051 157.576 48.7451 158.824 49.5131 158.632L61.0331 156.328C58.2491 161.128 55.7531 166.024 53.4491 170.92C53.0651 171.784 54.9851 172.744 54.9851 172.744C55.6571 173.032 56.1371 173.032 56.3291 172.648C59.4011 166.504 62.4731 160.84 65.7371 155.368C77.7371 152.968 89.7371 150.472 101.737 148.072L102.217 147.976L102.121 147.592C102.025 147.112 100.681 145.864 100.009 145.96C89.2571 147.112 78.6971 148.84 68.4251 151.048C70.7291 147.4 73.1291 143.944 75.4331 140.68C76.1051 139.72 76.7771 138.76 77.5451 137.704C82.9211 130.024 90.3131 119.656 98.4731 117.064C101.065 116.296 102.889 116.488 104.233 117.832C110.281 123.88 102.505 149.8 100.009 157.672C96.4571 168.712 91.9451 179.752 87.6251 190.312L85.8011 194.728C85.3211 195.784 87.6251 196.84 87.6251 196.84C87.9131 196.936 88.1051 197.032 88.2971 197.032C88.5851 197.032 88.6811 196.936 88.7771 196.648C96.1691 179.656 103.081 162.856 107.209 145.192C107.401 144.328 107.689 143.368 107.881 142.408C110.185 133.288 113.641 119.56 104.041 114.472ZM119.797 162.472C119.989 162.088 120.277 161.704 120.469 161.32C120.565 161.128 120.565 160.936 120.469 160.744C120.181 160.264 119.125 159.592 118.645 159.592C118.261 159.496 118.165 159.688 118.069 159.784C118.069 159.88 117.973 160.072 117.877 160.264C116.725 162.28 114.325 167.464 109.717 166.984C109.717 166.696 109.717 166.504 109.717 166.216V166.12C109.813 165.256 109.717 164.68 110.005 163.816C110.101 163.72 110.101 163.624 110.101 163.528C110.773 161.512 111.829 159.688 112.693 158.152C112.885 157.768 112.309 157.384 111.637 157C111.253 156.712 110.389 156.136 110.005 156.616C108.085 159.304 106.837 162.376 106.453 165.16C106.357 166.216 106.357 167.752 108.277 168.904C109.045 169.384 109.813 169.576 110.677 169.576C112.309 169.576 114.037 168.808 115.093 168.136C117.205 166.696 118.453 164.584 119.797 162.472ZM112.693 156.232C112.789 156.232 112.789 156.232 112.885 156.232C114.133 155.752 114.613 154.888 114.133 153.832C113.941 153.352 113.269 152.872 112.789 152.584C112.405 152.488 112.117 152.392 111.925 152.488C111.445 152.68 111.157 152.968 110.869 153.256C110.773 153.256 110.773 153.256 110.677 153.352C110.389 153.448 110.197 153.64 109.909 154.024C109.909 154.12 109.717 154.408 110.197 154.888C110.581 155.272 112.021 156.232 112.693 156.232ZM137.43 160.648C137.334 160.648 136.086 159.4 135.51 159.976C131.958 163.336 129.078 166.312 125.91 169.768C126.582 167.464 127.35 164.872 128.694 162.472C129.654 161.224 130.518 159.976 130.998 159.016C131.286 158.344 130.326 157.576 129.846 157.288C129.078 156.808 128.502 156.712 128.214 157.096C127.254 158.344 126.39 159.688 125.622 161.128C124.086 163.144 121.11 166.408 117.846 166.408C118.134 161.8 126.102 158.248 127.062 157.864C127.254 157.768 127.446 157.576 127.35 157.192C127.158 156.712 125.91 155.656 125.238 155.848C122.454 156.808 115.638 160.552 114.87 164.392C114.582 165.64 114.966 166.792 116.118 167.752C117.942 169.384 120.438 169.384 123.222 167.56C122.742 169.48 122.262 171.496 121.878 173.32L121.59 174.664C118.806 177.832 115.734 182.248 116.694 188.104C116.79 188.584 118.134 189.736 118.806 189.832C118.902 189.832 118.998 189.832 118.998 189.832C119.382 189.832 119.478 189.64 119.574 189.64C122.55 185.128 123.606 180.04 124.662 175.528C127.062 172.552 129.654 169.96 132.15 167.56C134.166 165.544 136.086 163.624 137.718 161.8C138.006 161.512 137.91 161.128 137.43 160.648ZM152.189 158.344C151.709 158.728 151.037 159.496 150.173 160.36C148.925 161.704 147.389 163.336 146.141 164.584C146.237 164.2 146.429 163.912 146.525 163.624C146.717 163.24 146.909 162.856 147.005 162.472L147.677 160.936C148.253 159.4 148.925 157.768 149.597 156.232C149.981 155.176 147.773 154.216 147.773 154.216C147.101 153.832 146.717 153.928 146.525 154.312C144.317 158.344 141.725 161.896 138.653 164.68L138.461 164.872C136.541 166.696 135.965 166.888 135.965 166.888C135.869 166.792 135.677 166.216 137.117 163.624L137.213 163.336C137.789 162.184 138.461 161.032 139.037 159.88C139.613 158.92 140.189 157.96 140.669 156.904C141.053 156.232 139.901 155.464 139.517 155.176C138.749 154.792 138.173 154.696 137.981 155.08C137.789 155.368 137.501 155.656 137.309 155.944C135.197 158.824 132.029 163.24 132.989 166.408C133.277 167.56 134.237 168.52 135.677 169.096C136.157 169.288 136.733 169.384 137.213 169.384C139.229 169.384 140.861 167.752 142.301 166.312C142.397 166.792 142.685 167.176 143.165 167.752C144.125 168.712 145.277 169.096 146.333 168.808C147.197 168.52 147.965 167.56 148.541 166.792C148.733 166.504 148.925 166.312 149.117 166.12C149.597 165.544 150.461 164.68 151.325 163.72C152.669 162.376 154.013 161.032 154.685 160.264C154.973 159.976 154.781 159.496 154.301 159.016C154.205 159.016 152.861 157.672 152.189 158.344ZM163.578 162.472C163.77 162.088 164.058 161.704 164.25 161.32C164.346 161.128 164.346 160.936 164.25 160.744C163.962 160.264 162.906 159.592 162.426 159.592C162.042 159.496 161.946 159.688 161.85 159.784C161.85 159.88 161.754 160.072 161.658 160.264C160.506 162.28 158.106 167.464 153.498 166.984C153.498 166.696 153.498 166.504 153.498 166.216V166.12C153.594 165.256 153.498 164.68 153.786 163.816C153.882 163.72 153.882 163.624 153.882 163.528C154.554 161.512 155.61 159.688 156.474 158.152C156.666 157.768 156.09 157.384 155.418 157C155.034 156.712 154.17 156.136 153.786 156.616C151.866 159.304 150.618 162.376 150.234 165.16C150.138 166.216 150.138 167.752 152.058 168.904C152.826 169.384 153.594 169.576 154.458 169.576C156.09 169.576 157.818 168.808 158.874 168.136C160.986 166.696 162.234 164.584 163.578 162.472ZM156.474 156.232C156.57 156.232 156.57 156.232 156.666 156.232C157.914 155.752 158.394 154.888 157.914 153.832C157.722 153.352 157.05 152.872 156.57 152.584C156.186 152.488 155.898 152.392 155.706 152.488C155.226 152.68 154.938 152.968 154.65 153.256C154.554 153.256 154.554 153.256 154.458 153.352C154.17 153.448 153.978 153.64 153.69 154.024C153.69 154.12 153.498 154.408 153.978 154.888C154.362 155.272 155.802 156.232 156.474 156.232ZM173.154 158.44C172.578 158.152 172.29 158.344 172.098 158.536C170.562 161.224 166.914 164.968 164.226 167.656C163.842 168.04 163.554 168.424 163.17 168.712C162.978 165.16 165.282 158.92 166.434 155.752C166.626 155.272 166.818 154.696 166.914 154.312C168.162 150.856 169.698 147.4 171.234 144.04C172.002 142.408 172.77 140.776 173.442 139.048C173.73 138.28 172.29 137.416 172.29 137.416C171.618 137.128 171.33 137.32 171.234 137.512C167.298 143.368 164.13 150.856 161.73 160.552C161.634 161.032 161.442 161.608 161.346 162.088C160.386 165.448 159.426 169 162.402 171.688C162.882 172.072 163.458 172.552 164.034 172.552C164.13 172.552 164.322 172.456 164.418 172.36C164.802 172.072 165.09 171.688 165.474 171.4C168.738 168.232 173.154 163.912 174.594 160.264C174.978 159.4 173.25 158.44 173.154 158.44ZM183.186 158.44C182.61 158.152 182.322 158.344 182.13 158.536C180.594 161.224 176.946 164.968 174.258 167.656C173.874 168.04 173.586 168.424 173.202 168.712C173.01 165.16 175.314 158.92 176.466 155.752C176.658 155.272 176.85 154.696 176.946 154.312C178.194 150.856 179.73 147.4 181.266 144.04C182.034 142.408 182.802 140.776 183.474 139.048C183.762 138.28 182.322 137.416 182.322 137.416C181.65 137.128 181.362 137.32 181.266 137.512C177.33 143.368 174.162 150.856 171.762 160.552C171.666 161.032 171.474 161.608 171.378 162.088C170.418 165.448 169.458 169 172.434 171.688C172.914 172.072 173.49 172.552 174.066 172.552C174.162 172.552 174.354 172.456 174.45 172.36C174.834 172.072 175.122 171.688 175.506 171.4C178.77 168.232 183.186 163.912 184.626 160.264C185.01 159.4 183.282 158.44 183.186 158.44ZM201.973 160.552C199.189 160.744 196.021 160.936 193.045 161.896C191.509 162.472 190.069 163.24 188.629 164.008C187.573 164.584 186.421 165.16 185.269 165.64C185.173 165.64 184.981 165.736 184.789 165.832C183.925 166.216 182.965 166.696 182.389 166.408C182.005 166.216 181.813 165.928 181.621 165.352C181.525 164.68 182.869 163.144 183.637 162.376C184.021 162.568 184.405 162.76 184.597 162.664C186.613 161.8 192.853 158.824 191.989 156.328C191.701 155.56 189.973 154.12 189.109 154.312C185.557 154.888 179.509 159.208 178.549 163.336C178.165 165.256 178.933 166.888 180.757 168.04C181.813 168.808 182.869 169.096 184.021 169.096C185.845 169.096 187.669 168.232 189.397 167.464C194.677 164.968 198.421 163.624 203.701 163.144C203.893 163.24 204.085 163.336 204.277 163.336C204.469 163.336 204.565 163.24 204.661 163.24L204.853 162.952C204.949 162.856 204.949 162.664 204.853 162.376C204.469 161.704 202.453 160.552 201.973 160.552Z" fill="black"/>
</svg>
