<svg width="544" height="127" viewBox="0 0 544 127" fill="none" xmlns="http://www.w3.org/2000/svg">
<path d="M91.47 9.11999C77.07 -3.264 60.798 8.39999 49.854 18.336C35.886 30.864 24.078 45.552 14.43 62.112C14.574 61.968 14.574 61.968 14.574 61.824C19.47 44.976 24.222 27.408 28.83 10.128C29.262 8.54399 26.382 7.536 26.094 7.392C25.23 7.24799 24.798 7.68 24.51 8.256C19.47 25.248 14.574 42.672 9.966 59.52C7.086 69.6 4.062 80.112 1.182 90.48L0.75 91.2L1.038 91.344C1.614 92.64 3.918 93.504 4.206 93.648C4.35 93.648 4.494 93.792 4.638 93.792L5.646 94.368L5.934 92.928C13.422 73.344 23.502 55.776 36.174 40.656C41.07 34.752 66.126 5.52 81.966 8.112C87.582 8.976 91.614 13.728 93.918 22.08C99.246 42.096 78.798 63.84 66.27 75.072C43.95 94.944 23.214 103.44 4.494 100.272C3.774 100.128 3.342 100.56 3.054 101.136C2.91 102.432 5.502 104.16 6.222 104.16C9.246 104.736 12.126 105.024 15.15 105.024C40.782 105.024 64.11 85.584 76.638 73.056C87.294 62.256 99.966 43.824 100.11 28.128C99.966 20.496 97.23 14.16 91.47 9.11999ZM118.577 71.328C114.401 71.616 109.649 71.904 105.185 73.344C102.881 74.208 100.721 75.36 98.5609 76.512C96.9769 77.376 95.2489 78.24 93.5209 78.96C93.3769 78.96 93.0889 79.104 92.8009 79.248C91.5049 79.824 90.0649 80.544 89.2009 80.112C88.6249 79.824 88.3369 79.392 88.0489 78.528C87.9049 77.52 89.9209 75.216 91.0729 74.064C91.6489 74.352 92.2249 74.64 92.5129 74.496C95.5369 73.2 104.897 68.736 103.601 64.992C103.169 63.84 100.577 61.68 99.2809 61.968C93.9529 62.832 84.8809 69.312 83.4409 75.504C82.8649 78.384 84.0169 80.832 86.7529 82.56C88.3369 83.712 89.9209 84.144 91.6489 84.144C94.3849 84.144 97.1209 82.848 99.7129 81.696C107.633 77.952 113.249 75.936 121.169 75.216C121.457 75.36 121.745 75.504 122.033 75.504C122.321 75.504 122.465 75.36 122.609 75.36L122.897 74.928C123.041 74.784 123.041 74.496 122.897 74.064C122.321 73.056 119.297 71.328 118.577 71.328ZM137.183 63.696C137.327 63.696 137.327 63.696 137.471 63.696C142.079 62.976 146.687 62.4 151.151 61.824C145.391 76.224 140.783 90.912 136.751 104.592C136.031 106.464 139.487 107.76 139.631 107.76C139.919 107.76 140.063 107.904 140.351 107.904C141.071 107.904 141.359 107.184 141.359 107.04C145.967 92.784 151.439 76.944 158.063 60.96C170.447 59.664 181.823 58.944 192.623 59.088H193.343V58.368C193.343 57.648 191.183 55.632 190.175 55.632C179.519 55.488 169.583 55.776 160.079 56.64C163.679 48.288 167.567 40.08 172.031 31.728C183.263 11.28 211.919 9.83999 234.815 8.688C238.271 8.54399 241.727 8.39999 244.895 8.112H245.903L245.759 7.10399C245.759 6.24 243.455 3.93599 242.159 3.93599C242.159 3.93599 242.159 3.93599 242.015 3.93599C227.615 4.368 212.783 6.096 198.239 8.832C185.711 11.136 176.351 13.728 169.295 24.816C163.103 34.896 157.631 45.984 152.879 57.36C146.543 58.224 140.495 59.088 134.591 60.24L133.871 60.384L134.015 61.104C134.159 61.824 135.887 63.696 137.183 63.696ZM198.235 74.208C198.523 73.632 198.955 73.056 199.243 72.48C199.387 72.192 199.387 71.904 199.243 71.616C198.811 70.896 197.227 69.888 196.507 69.888C195.931 69.744 195.787 70.032 195.643 70.176C195.643 70.32 195.499 70.608 195.355 70.896C193.627 73.92 190.027 81.696 183.115 80.976C183.115 80.544 183.115 80.256 183.115 79.824V79.68C183.259 78.384 183.115 77.52 183.547 76.224C183.691 76.08 183.691 75.936 183.691 75.792C184.699 72.768 186.283 70.032 187.579 67.728C187.867 67.152 187.003 66.576 185.995 66C185.419 65.568 184.123 64.704 183.547 65.424C180.667 69.456 178.795 74.064 178.219 78.24C178.075 79.824 178.075 82.128 180.955 83.856C182.107 84.576 183.259 84.864 184.555 84.864C187.003 84.864 189.595 83.712 191.179 82.704C194.347 80.544 196.219 77.376 198.235 74.208ZM187.579 64.848C187.723 64.848 187.723 64.848 187.867 64.848C189.739 64.128 190.459 62.832 189.739 61.248C189.451 60.528 188.443 59.808 187.723 59.376C187.147 59.232 186.715 59.088 186.427 59.232C185.707 59.52 185.275 59.952 184.843 60.384C184.699 60.384 184.699 60.384 184.555 60.528C184.123 60.672 183.835 60.96 183.403 61.536C183.403 61.68 183.115 62.112 183.835 62.832C184.411 63.408 186.571 64.848 187.579 64.848ZM211.303 37.056C210.583 36.624 209.575 36.192 209.287 36.768C203.527 45.984 198.775 55.92 195.463 65.424C191.719 76.656 189.991 87.168 190.423 96.672C190.423 97.392 192.727 98.832 193.447 98.976H193.591C193.879 98.976 193.879 98.832 193.879 98.688C195.175 94.224 196.039 89.616 196.759 85.152C197.911 79.536 198.919 73.92 200.647 68.304C203.527 59.52 207.415 50.736 213.463 39.648C213.895 38.928 212.167 37.632 211.303 37.056ZM264.514 70.032C264.226 69.312 263.362 68.16 262.498 68.016C262.21 68.016 261.778 68.16 261.634 68.448C260.914 69.888 257.602 73.776 253.282 76.944C246.946 81.552 243.058 81.264 240.898 80.112C240.754 80.112 240.754 79.968 240.754 79.824C240.61 79.392 240.754 78.096 243.058 74.64C243.634 75.216 244.498 75.648 245.074 75.504C249.826 73.92 254.002 70.176 256.594 64.848C256.738 64.56 256.738 64.128 256.594 63.84C256.162 62.976 254.146 62.112 253.858 61.968C248.674 60.672 244.354 65.712 241.042 70.176L240.898 70.32C238.594 73.344 234.418 78.96 238.018 82.56C239.314 83.856 241.042 84.432 243.346 84.432C243.634 84.432 243.922 84.432 244.21 84.432C246.658 84.288 249.106 83.424 250.258 82.992C255.73 80.832 260.05 76.224 264.514 71.04C264.658 70.896 264.802 70.608 264.514 70.032ZM246.802 70.896C246.37 69.888 249.25 65.568 250.978 66.72C250.258 67.44 247.666 70.032 246.802 70.896ZM301.2 74.784C297.6 74.928 293.712 75.936 289.968 76.944C285.504 78.24 280.752 79.536 276.288 79.104C276.288 77.808 276.576 76.512 276.72 75.072C277.44 71.184 278.304 67.152 272.832 65.424C271.104 64.992 269.232 65.28 267.504 66.288C267.216 66 266.784 65.712 266.64 65.568C266.208 65.28 265.2 64.704 264.624 65.136C260.16 69.744 256.848 75.936 253.824 81.84C253.392 82.56 252.96 83.424 252.528 84.144C252.528 84.288 252.528 84.288 252.528 84.288C252.096 85.008 253.536 86.16 254.544 86.736C254.976 87.024 255.984 87.6 256.56 87.6C256.848 87.6 256.992 87.6 257.136 87.456C258 86.304 258.864 85.008 259.728 83.856C261.888 80.976 264.048 78.096 266.352 75.36C266.496 75.216 266.64 74.928 266.928 74.64C267.936 73.344 270.384 70.32 271.248 70.464C271.968 70.464 272.112 70.608 272.256 70.752C272.256 70.752 272.256 71.04 272.112 71.328C271.968 71.616 271.824 72.048 271.824 72.768C271.824 73.776 271.824 74.64 271.68 75.504C271.392 77.52 271.248 79.248 273.984 81.12C277.008 83.28 281.04 82.704 284.352 82.272C284.64 82.272 284.928 82.272 285.072 82.272C285.792 82.128 286.656 81.984 287.376 81.984C292.992 81.264 300.048 80.4 304.656 77.664C304.8 77.52 304.8 77.376 304.8 77.232C304.512 76.512 301.92 74.784 301.2 74.784ZM391.726 2.208C379.63 -4.12801 366.382 11.28 359.182 19.488L358.174 20.784C348.382 32.016 339.166 44.832 330.814 58.8C322.174 60.816 314.398 62.832 306.91 65.136L306.334 65.424L306.478 66C306.622 66.864 308.782 68.736 309.934 68.448L327.214 64.992C323.038 72.192 319.294 79.536 315.838 86.88C315.262 88.176 318.142 89.616 318.142 89.616C319.15 90.048 319.87 90.048 320.158 89.472C324.766 80.256 329.374 71.76 334.27 63.552C352.27 59.952 370.27 56.208 388.27 52.608L388.99 52.464L388.846 51.888C388.702 51.168 386.686 49.296 385.678 49.44C369.55 51.168 353.71 53.76 338.302 57.072C341.758 51.6 345.358 46.416 348.814 41.52C349.822 40.08 350.83 38.64 351.982 37.056C360.046 25.536 371.134 9.984 383.374 6.096C387.262 4.944 389.998 5.23199 392.014 7.24799C401.086 16.32 389.422 55.2 385.678 67.008C380.35 83.568 373.582 100.128 367.102 115.968L364.366 122.592C363.646 124.176 367.102 125.76 367.102 125.76C367.534 125.904 367.822 126.048 368.11 126.048C368.542 126.048 368.686 125.904 368.83 125.472C379.918 99.984 390.286 74.784 396.478 48.288C396.766 46.992 397.198 45.552 397.486 44.112C400.942 30.432 406.126 9.83999 391.726 2.208ZM415.36 74.208C415.648 73.632 416.08 73.056 416.368 72.48C416.512 72.192 416.512 71.904 416.368 71.616C415.936 70.896 414.352 69.888 413.632 69.888C413.056 69.744 412.912 70.032 412.768 70.176C412.768 70.32 412.624 70.608 412.48 70.896C410.752 73.92 407.152 81.696 400.24 80.976C400.24 80.544 400.24 80.256 400.24 79.824V79.68C400.384 78.384 400.24 77.52 400.672 76.224C400.816 76.08 400.816 75.936 400.816 75.792C401.824 72.768 403.408 70.032 404.704 67.728C404.992 67.152 404.128 66.576 403.12 66C402.544 65.568 401.248 64.704 400.672 65.424C397.792 69.456 395.92 74.064 395.344 78.24C395.2 79.824 395.2 82.128 398.08 83.856C399.232 84.576 400.384 84.864 401.68 84.864C404.128 84.864 406.72 83.712 408.304 82.704C411.472 80.544 413.344 77.376 415.36 74.208ZM404.704 64.848C404.848 64.848 404.848 64.848 404.992 64.848C406.864 64.128 407.584 62.832 406.864 61.248C406.576 60.528 405.568 59.808 404.848 59.376C404.272 59.232 403.84 59.088 403.552 59.232C402.832 59.52 402.4 59.952 401.968 60.384C401.824 60.384 401.824 60.384 401.68 60.528C401.248 60.672 400.96 60.96 400.528 61.536C400.528 61.68 400.24 62.112 400.96 62.832C401.536 63.408 403.696 64.848 404.704 64.848ZM441.81 71.472C441.666 71.472 439.794 69.6 438.93 70.464C433.602 75.504 429.282 79.968 424.53 85.152C425.538 81.696 426.69 77.808 428.706 74.208C430.146 72.336 431.442 70.464 432.162 69.024C432.594 68.016 431.154 66.864 430.434 66.432C429.282 65.712 428.418 65.568 427.986 66.144C426.546 68.016 425.25 70.032 424.098 72.192C421.794 75.216 417.33 80.112 412.434 80.112C412.866 73.2 424.818 67.872 426.258 67.296C426.546 67.152 426.834 66.864 426.69 66.288C426.402 65.568 424.53 63.984 423.522 64.272C419.346 65.712 409.122 71.328 407.97 77.088C407.538 78.96 408.114 80.688 409.842 82.128C412.578 84.576 416.322 84.576 420.498 81.84C419.778 84.72 419.058 87.744 418.482 90.48L418.05 92.496C413.874 97.248 409.266 103.872 410.706 112.656C410.85 113.376 412.866 115.104 413.874 115.248C414.018 115.248 414.162 115.248 414.162 115.248C414.738 115.248 414.882 114.96 415.026 114.96C419.49 108.192 421.074 100.56 422.658 93.792C426.258 89.328 430.146 85.44 433.89 81.84C436.914 78.816 439.794 75.936 442.242 73.2C442.674 72.768 442.53 72.192 441.81 71.472ZM463.947 68.016C463.227 68.592 462.219 69.744 460.923 71.04C459.051 73.056 456.747 75.504 454.875 77.376C455.019 76.8 455.307 76.368 455.451 75.936C455.739 75.36 456.027 74.784 456.171 74.208L457.179 71.904C458.043 69.6 459.051 67.152 460.059 64.848C460.635 63.264 457.323 61.824 457.323 61.824C456.315 61.248 455.739 61.392 455.451 61.968C452.139 68.016 448.251 73.344 443.643 77.52L443.355 77.808C440.475 80.544 439.611 80.832 439.611 80.832C439.467 80.688 439.179 79.824 441.339 75.936L441.483 75.504C442.347 73.776 443.355 72.048 444.219 70.32C445.083 68.88 445.947 67.44 446.667 65.856C447.243 64.848 445.515 63.696 444.939 63.264C443.787 62.688 442.923 62.544 442.635 63.12C442.347 63.552 441.915 63.984 441.627 64.416C438.459 68.736 433.707 75.36 435.147 80.112C435.579 81.84 437.019 83.28 439.179 84.144C439.899 84.432 440.763 84.576 441.483 84.576C444.507 84.576 446.955 82.128 449.115 79.968C449.259 80.688 449.691 81.264 450.411 82.128C451.851 83.568 453.579 84.144 455.163 83.712C456.459 83.28 457.611 81.84 458.475 80.688C458.763 80.256 459.051 79.968 459.339 79.68C460.059 78.816 461.355 77.52 462.651 76.08C464.667 74.064 466.683 72.048 467.691 70.896C468.123 70.464 467.835 69.744 467.115 69.024C466.971 69.024 464.955 67.008 463.947 68.016ZM481.032 74.208C481.32 73.632 481.752 73.056 482.04 72.48C482.184 72.192 482.184 71.904 482.04 71.616C481.608 70.896 480.024 69.888 479.304 69.888C478.728 69.744 478.584 70.032 478.44 70.176C478.44 70.32 478.296 70.608 478.152 70.896C476.424 73.92 472.824 81.696 465.912 80.976C465.912 80.544 465.912 80.256 465.912 79.824V79.68C466.056 78.384 465.912 77.52 466.344 76.224C466.488 76.08 466.488 75.936 466.488 75.792C467.496 72.768 469.08 70.032 470.376 67.728C470.664 67.152 469.8 66.576 468.792 66C468.216 65.568 466.92 64.704 466.344 65.424C463.464 69.456 461.592 74.064 461.016 78.24C460.872 79.824 460.872 82.128 463.752 83.856C464.904 84.576 466.056 84.864 467.352 84.864C469.8 84.864 472.392 83.712 473.976 82.704C477.144 80.544 479.016 77.376 481.032 74.208ZM470.376 64.848C470.52 64.848 470.52 64.848 470.664 64.848C472.536 64.128 473.256 62.832 472.536 61.248C472.248 60.528 471.24 59.808 470.52 59.376C469.944 59.232 469.512 59.088 469.224 59.232C468.504 59.52 468.072 59.952 467.64 60.384C467.496 60.384 467.496 60.384 467.352 60.528C466.92 60.672 466.632 60.96 466.2 61.536C466.2 61.68 465.912 62.112 466.632 62.832C467.208 63.408 469.368 64.848 470.376 64.848ZM495.396 68.16C494.532 67.728 494.1 68.016 493.812 68.304C491.508 72.336 486.036 77.952 482.004 81.984C481.428 82.56 480.996 83.136 480.42 83.568C480.132 78.24 483.588 68.88 485.316 64.128C485.604 63.408 485.892 62.544 486.036 61.968C487.908 56.784 490.212 51.6 492.516 46.56C493.668 44.112 494.82 41.664 495.828 39.072C496.26 37.92 494.1 36.624 494.1 36.624C493.092 36.192 492.66 36.48 492.516 36.768C486.612 45.552 481.86 56.784 478.26 71.328C478.116 72.048 477.828 72.912 477.684 73.632C476.244 78.672 474.804 84 479.268 88.032C479.988 88.608 480.852 89.328 481.716 89.328C481.86 89.328 482.148 89.184 482.292 89.04C482.868 88.608 483.3 88.032 483.876 87.6C488.772 82.848 495.396 76.368 497.556 70.896C498.132 69.6 495.54 68.16 495.396 68.16ZM510.443 68.16C509.579 67.728 509.147 68.016 508.859 68.304C506.555 72.336 501.083 77.952 497.051 81.984C496.475 82.56 496.043 83.136 495.467 83.568C495.179 78.24 498.635 68.88 500.363 64.128C500.651 63.408 500.939 62.544 501.083 61.968C502.955 56.784 505.259 51.6 507.562 46.56C508.715 44.112 509.867 41.664 510.875 39.072C511.307 37.92 509.147 36.624 509.147 36.624C508.139 36.192 507.707 36.48 507.562 36.768C501.659 45.552 496.907 56.784 493.307 71.328C493.163 72.048 492.875 72.912 492.731 73.632C491.291 78.672 489.851 84 494.314 88.032C495.035 88.608 495.899 89.328 496.763 89.328C496.907 89.328 497.195 89.184 497.339 89.04C497.915 88.608 498.347 88.032 498.923 87.6C503.819 82.848 510.443 76.368 512.603 70.896C513.179 69.6 510.587 68.16 510.443 68.16ZM538.624 71.328C534.448 71.616 529.696 71.904 525.232 73.344C522.928 74.208 520.768 75.36 518.608 76.512C517.024 77.376 515.296 78.24 513.568 78.96C513.424 78.96 513.136 79.104 512.848 79.248C511.552 79.824 510.112 80.544 509.248 80.112C508.672 79.824 508.384 79.392 508.096 78.528C507.952 77.52 509.968 75.216 511.12 74.064C511.696 74.352 512.272 74.64 512.56 74.496C515.584 73.2 524.944 68.736 523.648 64.992C523.216 63.84 520.624 61.68 519.328 61.968C514 62.832 504.928 69.312 503.488 75.504C502.912 78.384 504.064 80.832 506.8 82.56C508.384 83.712 509.968 84.144 511.696 84.144C514.432 84.144 517.168 82.848 519.76 81.696C527.68 77.952 533.296 75.936 541.216 75.216C541.504 75.36 541.792 75.504 542.08 75.504C542.368 75.504 542.512 75.36 542.656 75.36L542.944 74.928C543.088 74.784 543.088 74.496 542.944 74.064C542.368 73.056 539.344 71.328 538.624 71.328Z" fill="#EF8F8C"/>
</svg>
