<svg width="242" height="57" viewBox="0 0 242 57" fill="none" xmlns="http://www.w3.org/2000/svg">
<path d="M40.32 4.72C33.92 -0.784 26.688 4.4 21.824 8.816C15.616 14.384 10.368 20.912 6.08 28.272C6.144 28.208 6.144 28.208 6.144 28.144C8.32 20.656 10.432 12.848 12.48 5.168C12.672 4.464 11.392 4.016 11.264 3.952C10.88 3.888 10.688 4.08 10.56 4.336C8.32 11.888 6.144 19.632 4.096 27.12C2.816 31.6 1.472 36.272 0.192 40.88L0 41.2L0.128 41.264C0.384 41.84 1.408 42.224 1.536 42.288C1.6 42.288 1.664 42.352 1.728 42.352L2.176 42.608L2.304 41.968C5.632 33.264 10.112 25.456 15.744 18.736C17.92 16.112 29.056 3.12 36.096 4.272C38.592 4.656 40.384 6.768 41.408 10.48C43.776 19.376 34.688 29.04 29.12 34.032C19.2 42.864 9.984 46.64 1.664 45.232C1.344 45.168 1.152 45.36 1.024 45.616C0.96 46.192 2.112 46.96 2.432 46.96C3.776 47.216 5.056 47.344 6.4 47.344C17.792 47.344 28.16 38.704 33.728 33.136C38.464 28.336 44.096 20.144 44.16 13.168C44.096 9.776 42.88 6.96 40.32 4.72ZM52.3675 32.368C50.5115 32.496 48.3995 32.624 46.4155 33.264C45.3915 33.648 44.4315 34.16 43.4715 34.672C42.7675 35.056 41.9995 35.44 41.2315 35.76C41.1675 35.76 41.0395 35.824 40.9115 35.888C40.3355 36.144 39.6955 36.464 39.3115 36.272C39.0555 36.144 38.9275 35.952 38.7995 35.568C38.7355 35.12 39.6315 34.096 40.1435 33.584C40.3995 33.712 40.6555 33.84 40.7835 33.776C42.1275 33.2 46.2875 31.216 45.7115 29.552C45.5195 29.04 44.3675 28.08 43.7915 28.208C41.4235 28.592 37.3915 31.472 36.7515 34.224C36.4955 35.504 37.0075 36.592 38.2235 37.36C38.9275 37.872 39.6315 38.064 40.3995 38.064C41.6155 38.064 42.8315 37.488 43.9835 36.976C47.5035 35.312 49.9995 34.416 53.5195 34.096C53.6475 34.16 53.7755 34.224 53.9035 34.224C54.0315 34.224 54.0955 34.16 54.1595 34.16L54.2875 33.968C54.3515 33.904 54.3515 33.776 54.2875 33.584C54.0315 33.136 52.6875 32.368 52.3675 32.368ZM60.637 28.976C60.701 28.976 60.701 28.976 60.765 28.976C62.813 28.656 64.861 28.4 66.845 28.144C64.285 34.544 62.237 41.072 60.445 47.152C60.125 47.984 61.661 48.56 61.725 48.56C61.853 48.56 61.917 48.624 62.045 48.624C62.365 48.624 62.493 48.304 62.493 48.24C64.541 41.904 66.973 34.864 69.917 27.76C75.421 27.184 80.477 26.864 85.277 26.928H85.597V26.608C85.597 26.288 84.637 25.392 84.189 25.392C79.453 25.328 75.037 25.456 70.813 25.84C72.413 22.128 74.141 18.48 76.125 14.768C81.117 5.68 93.853 5.04 104.029 4.528C105.565 4.464 107.101 4.4 108.509 4.272H108.957L108.893 3.824C108.893 3.44 107.869 2.416 107.293 2.416C107.293 2.416 107.293 2.416 107.229 2.416C100.829 2.608 94.237 3.376 87.773 4.592C82.205 5.616 78.045 6.768 74.909 11.696C72.157 16.176 69.725 21.104 67.613 26.16C64.797 26.544 62.109 26.928 59.485 27.44L59.165 27.504L59.229 27.824C59.293 28.144 60.061 28.976 60.637 28.976ZM87.771 33.648C87.899 33.392 88.091 33.136 88.219 32.88C88.283 32.752 88.283 32.624 88.219 32.496C88.027 32.176 87.323 31.728 87.003 31.728C86.747 31.664 86.683 31.792 86.619 31.856C86.619 31.92 86.555 32.048 86.491 32.176C85.723 33.52 84.123 36.976 81.051 36.656C81.051 36.464 81.051 36.336 81.051 36.144V36.08C81.115 35.504 81.051 35.12 81.243 34.544C81.307 34.48 81.307 34.416 81.307 34.352C81.755 33.008 82.459 31.792 83.035 30.768C83.163 30.512 82.779 30.256 82.331 30C82.075 29.808 81.499 29.424 81.243 29.744C79.963 31.536 79.131 33.584 78.875 35.44C78.811 36.144 78.811 37.168 80.091 37.936C80.603 38.256 81.115 38.384 81.691 38.384C82.779 38.384 83.931 37.872 84.635 37.424C86.043 36.464 86.875 35.056 87.771 33.648ZM83.035 29.488C83.099 29.488 83.099 29.488 83.163 29.488C83.995 29.168 84.315 28.592 83.995 27.888C83.867 27.568 83.419 27.248 83.099 27.056C82.843 26.992 82.651 26.928 82.523 26.992C82.203 27.12 82.011 27.312 81.819 27.504C81.755 27.504 81.755 27.504 81.691 27.568C81.499 27.632 81.371 27.76 81.179 28.016C81.179 28.08 81.051 28.272 81.371 28.592C81.627 28.848 82.587 29.488 83.035 29.488ZM93.579 17.136C93.259 16.944 92.811 16.752 92.683 17.008C90.123 21.104 88.011 25.52 86.539 29.744C84.875 34.736 84.107 39.408 84.299 43.632C84.299 43.952 85.323 44.592 85.643 44.656H85.707C85.835 44.656 85.835 44.592 85.835 44.528C86.411 42.544 86.795 40.496 87.115 38.512C87.627 36.016 88.075 33.52 88.843 31.024C90.123 27.12 91.851 23.216 94.539 18.288C94.731 17.968 93.963 17.392 93.579 17.136ZM117.229 31.792C117.101 31.472 116.717 30.96 116.333 30.896C116.205 30.896 116.013 30.96 115.949 31.088C115.629 31.728 114.157 33.456 112.237 34.864C109.421 36.912 107.693 36.784 106.733 36.272C106.669 36.272 106.669 36.208 106.669 36.144C106.605 35.952 106.669 35.376 107.693 33.84C107.949 34.096 108.333 34.288 108.589 34.224C110.701 33.52 112.557 31.856 113.709 29.488C113.773 29.36 113.773 29.168 113.709 29.04C113.517 28.656 112.621 28.272 112.493 28.208C110.189 27.632 108.269 29.872 106.797 31.856L106.733 31.92C105.709 33.264 103.852 35.76 105.453 37.36C106.029 37.936 106.797 38.192 107.821 38.192C107.949 38.192 108.077 38.192 108.205 38.192C109.293 38.128 110.381 37.744 110.893 37.552C113.325 36.592 115.245 34.544 117.229 32.24C117.293 32.176 117.357 32.048 117.229 31.792ZM109.357 32.176C109.165 31.728 110.445 29.808 111.213 30.32C110.893 30.64 109.741 31.792 109.357 32.176ZM133.534 33.904C131.934 33.968 130.206 34.416 128.542 34.864C126.558 35.44 124.446 36.016 122.462 35.824C122.462 35.248 122.59 34.672 122.654 34.032C122.974 32.304 123.358 30.512 120.926 29.744C120.158 29.552 119.326 29.68 118.558 30.128C118.43 30 118.238 29.872 118.174 29.808C117.982 29.68 117.534 29.424 117.278 29.616C115.294 31.664 113.822 34.416 112.477 37.04C112.285 37.36 112.093 37.744 111.901 38.064C111.901 38.128 111.901 38.128 111.901 38.128C111.709 38.448 112.349 38.96 112.797 39.216C112.989 39.344 113.438 39.6 113.694 39.6C113.822 39.6 113.886 39.6 113.95 39.536C114.334 39.024 114.718 38.448 115.102 37.936C116.062 36.656 117.022 35.376 118.046 34.16C118.11 34.096 118.174 33.968 118.302 33.84C118.75 33.264 119.838 31.92 120.222 31.984C120.542 31.984 120.606 32.048 120.67 32.112C120.67 32.112 120.67 32.24 120.606 32.368C120.542 32.496 120.478 32.688 120.478 33.008C120.478 33.456 120.478 33.84 120.414 34.224C120.286 35.12 120.222 35.888 121.438 36.72C122.782 37.68 124.574 37.424 126.046 37.232C126.174 37.232 126.302 37.232 126.366 37.232C126.686 37.168 127.07 37.104 127.39 37.104C129.885 36.784 133.022 36.4 135.07 35.184C135.134 35.12 135.134 35.056 135.134 34.992C135.006 34.672 133.854 33.904 133.534 33.904ZM173.767 1.648C168.391 -1.168 162.503 5.68 159.303 9.328L158.855 9.904C154.503 14.896 150.407 20.592 146.695 26.8C142.855 27.696 139.399 28.592 136.071 29.616L135.815 29.744L135.879 30C135.943 30.384 136.903 31.216 137.415 31.088L145.095 29.552C143.239 32.752 141.575 36.016 140.039 39.28C139.783 39.856 141.063 40.496 141.063 40.496C141.511 40.688 141.831 40.688 141.959 40.432C144.007 36.336 146.055 32.56 148.231 28.912C156.231 27.312 164.231 25.648 172.231 24.048L172.551 23.984L172.487 23.728C172.423 23.408 171.527 22.576 171.079 22.64C163.911 23.408 156.871 24.56 150.023 26.032C151.559 23.6 153.159 21.296 154.695 19.12C155.143 18.48 155.591 17.84 156.103 17.136C159.687 12.016 164.615 5.104 170.055 3.376C171.783 2.864 172.999 2.992 173.895 3.888C177.927 7.92 172.743 25.2 171.079 30.448C168.711 37.808 165.703 45.168 162.823 52.208L161.607 55.152C161.287 55.856 162.823 56.56 162.823 56.56C163.015 56.624 163.143 56.688 163.271 56.688C163.463 56.688 163.527 56.624 163.591 56.432C168.519 45.104 173.127 33.904 175.879 22.128C176.007 21.552 176.199 20.912 176.327 20.272C177.863 14.192 180.167 5.04 173.767 1.648ZM184.271 33.648C184.399 33.392 184.591 33.136 184.719 32.88C184.783 32.752 184.783 32.624 184.719 32.496C184.527 32.176 183.823 31.728 183.503 31.728C183.247 31.664 183.183 31.792 183.119 31.856C183.119 31.92 183.055 32.048 182.991 32.176C182.223 33.52 180.623 36.976 177.551 36.656C177.551 36.464 177.551 36.336 177.551 36.144V36.08C177.615 35.504 177.551 35.12 177.743 34.544C177.807 34.48 177.807 34.416 177.807 34.352C178.255 33.008 178.959 31.792 179.535 30.768C179.663 30.512 179.279 30.256 178.831 30C178.575 29.808 177.999 29.424 177.743 29.744C176.463 31.536 175.631 33.584 175.375 35.44C175.311 36.144 175.311 37.168 176.591 37.936C177.103 38.256 177.615 38.384 178.191 38.384C179.279 38.384 180.431 37.872 181.135 37.424C182.543 36.464 183.375 35.056 184.271 33.648ZM179.535 29.488C179.599 29.488 179.599 29.488 179.663 29.488C180.495 29.168 180.815 28.592 180.495 27.888C180.367 27.568 179.919 27.248 179.599 27.056C179.343 26.992 179.151 26.928 179.023 26.992C178.703 27.12 178.511 27.312 178.319 27.504C178.255 27.504 178.255 27.504 178.191 27.568C177.999 27.632 177.871 27.76 177.679 28.016C177.679 28.08 177.551 28.272 177.871 28.592C178.127 28.848 179.087 29.488 179.535 29.488ZM196.027 32.432C195.963 32.432 195.131 31.6 194.747 31.984C192.379 34.224 190.459 36.208 188.347 38.512C188.795 36.976 189.307 35.248 190.203 33.648C190.843 32.816 191.419 31.984 191.739 31.344C191.931 30.896 191.291 30.384 190.97 30.192C190.459 29.872 190.075 29.808 189.883 30.064C189.243 30.896 188.667 31.792 188.155 32.752C187.131 34.096 185.147 36.272 182.971 36.272C183.163 33.2 188.475 30.832 189.115 30.576C189.243 30.512 189.371 30.384 189.307 30.128C189.179 29.808 188.347 29.104 187.899 29.232C186.043 29.872 181.498 32.368 180.986 34.928C180.794 35.76 181.05 36.528 181.819 37.168C183.035 38.256 184.699 38.256 186.555 37.04C186.235 38.32 185.915 39.664 185.659 40.88L185.467 41.776C183.611 43.888 181.562 46.832 182.203 50.736C182.267 51.056 183.163 51.824 183.611 51.888C183.674 51.888 183.739 51.888 183.739 51.888C183.995 51.888 184.059 51.76 184.123 51.76C186.107 48.752 186.811 45.36 187.515 42.352C189.115 40.368 190.843 38.64 192.507 37.04C193.851 35.696 195.131 34.416 196.219 33.2C196.411 33.008 196.347 32.752 196.027 32.432ZM205.866 30.896C205.546 31.152 205.098 31.664 204.522 32.24C203.69 33.136 202.666 34.224 201.834 35.056C201.898 34.8 202.026 34.608 202.09 34.416C202.218 34.16 202.345 33.904 202.41 33.648L202.858 32.624C203.242 31.6 203.69 30.512 204.138 29.488C204.394 28.784 202.922 28.144 202.922 28.144C202.474 27.888 202.218 27.952 202.09 28.208C200.618 30.896 198.89 33.264 196.842 35.12L196.714 35.248C195.434 36.464 195.049 36.592 195.049 36.592C194.986 36.528 194.858 36.144 195.818 34.416L195.882 34.224C196.266 33.456 196.714 32.688 197.098 31.92C197.482 31.28 197.866 30.64 198.186 29.936C198.442 29.488 197.674 28.976 197.418 28.784C196.906 28.528 196.522 28.464 196.394 28.72C196.266 28.912 196.074 29.104 195.946 29.296C194.538 31.216 192.425 34.16 193.066 36.272C193.258 37.04 193.898 37.68 194.858 38.064C195.178 38.192 195.562 38.256 195.882 38.256C197.226 38.256 198.314 37.168 199.274 36.208C199.338 36.528 199.53 36.784 199.85 37.168C200.49 37.808 201.258 38.064 201.962 37.872C202.538 37.68 203.05 37.04 203.434 36.528C203.562 36.336 203.69 36.208 203.818 36.08C204.138 35.696 204.714 35.12 205.29 34.48C206.186 33.584 207.082 32.688 207.53 32.176C207.722 31.984 207.594 31.664 207.274 31.344C207.21 31.344 206.314 30.448 205.866 30.896ZM213.459 33.648C213.587 33.392 213.779 33.136 213.907 32.88C213.97 32.752 213.97 32.624 213.907 32.496C213.715 32.176 213.01 31.728 212.691 31.728C212.435 31.664 212.371 31.792 212.307 31.856C212.307 31.92 212.243 32.048 212.179 32.176C211.411 33.52 209.811 36.976 206.739 36.656C206.739 36.464 206.739 36.336 206.739 36.144V36.08C206.803 35.504 206.739 35.12 206.931 34.544C206.995 34.48 206.995 34.416 206.995 34.352C207.443 33.008 208.147 31.792 208.723 30.768C208.851 30.512 208.467 30.256 208.019 30C207.763 29.808 207.187 29.424 206.931 29.744C205.651 31.536 204.819 33.584 204.562 35.44C204.498 36.144 204.498 37.168 205.779 37.936C206.291 38.256 206.803 38.384 207.379 38.384C208.467 38.384 209.619 37.872 210.323 37.424C211.731 36.464 212.562 35.056 213.459 33.648ZM208.723 29.488C208.786 29.488 208.786 29.488 208.851 29.488C209.683 29.168 210.003 28.592 209.683 27.888C209.555 27.568 209.107 27.248 208.786 27.056C208.531 26.992 208.339 26.928 208.211 26.992C207.891 27.12 207.699 27.312 207.507 27.504C207.443 27.504 207.443 27.504 207.379 27.568C207.187 27.632 207.059 27.76 206.867 28.016C206.867 28.08 206.739 28.272 207.059 28.592C207.315 28.848 208.275 29.488 208.723 29.488ZM219.843 30.96C219.459 30.768 219.267 30.896 219.139 31.024C218.115 32.816 215.683 35.312 213.891 37.104C213.635 37.36 213.443 37.616 213.187 37.808C213.059 35.44 214.595 31.28 215.363 29.168C215.491 28.848 215.619 28.464 215.683 28.208C216.515 25.904 217.539 23.6 218.562 21.36C219.075 20.272 219.587 19.184 220.035 18.032C220.227 17.52 219.267 16.944 219.267 16.944C218.819 16.752 218.627 16.88 218.562 17.008C215.939 20.912 213.827 25.904 212.227 32.368C212.163 32.688 212.035 33.072 211.971 33.392C211.331 35.632 210.691 38 212.674 39.792C212.995 40.048 213.379 40.368 213.763 40.368C213.827 40.368 213.955 40.304 214.019 40.24C214.275 40.048 214.467 39.792 214.723 39.6C216.899 37.488 219.843 34.608 220.803 32.176C221.059 31.6 219.907 30.96 219.843 30.96ZM226.53 30.96C226.146 30.768 225.954 30.896 225.826 31.024C224.802 32.816 222.37 35.312 220.578 37.104C220.322 37.36 220.13 37.616 219.874 37.808C219.746 35.44 221.282 31.28 222.05 29.168C222.178 28.848 222.306 28.464 222.37 28.208C223.202 25.904 224.226 23.6 225.25 21.36C225.762 20.272 226.274 19.184 226.722 18.032C226.914 17.52 225.954 16.944 225.954 16.944C225.506 16.752 225.314 16.88 225.25 17.008C222.626 20.912 220.514 25.904 218.914 32.368C218.85 32.688 218.722 33.072 218.658 33.392C218.018 35.632 217.378 38 219.362 39.792C219.682 40.048 220.066 40.368 220.45 40.368C220.514 40.368 220.642 40.304 220.706 40.24C220.962 40.048 221.154 39.792 221.41 39.6C223.586 37.488 226.53 34.608 227.49 32.176C227.746 31.6 226.594 30.96 226.53 30.96ZM239.055 32.368C237.199 32.496 235.087 32.624 233.103 33.264C232.079 33.648 231.119 34.16 230.159 34.672C229.455 35.056 228.687 35.44 227.919 35.76C227.855 35.76 227.727 35.824 227.599 35.888C227.023 36.144 226.383 36.464 225.999 36.272C225.743 36.144 225.615 35.952 225.487 35.568C225.423 35.12 226.319 34.096 226.831 33.584C227.087 33.712 227.343 33.84 227.471 33.776C228.815 33.2 232.975 31.216 232.399 29.552C232.207 29.04 231.055 28.08 230.479 28.208C228.111 28.592 224.079 31.472 223.439 34.224C223.183 35.504 223.695 36.592 224.911 37.36C225.615 37.872 226.319 38.064 227.087 38.064C228.303 38.064 229.519 37.488 230.671 36.976C234.191 35.312 236.687 34.416 240.207 34.096C240.335 34.16 240.463 34.224 240.591 34.224C240.719 34.224 240.783 34.16 240.847 34.16L240.975 33.968C241.039 33.904 241.039 33.776 240.975 33.584C240.719 33.136 239.375 32.368 239.055 32.368Z" fill="#EC625E"/>
</svg>
