<svg id="Capa_1" enable-background="new 0 0 512.035 512.035" height="512" viewBox="0 0 512.035 512.035" width="512" xmlns="http://www.w3.org/2000/svg"><g><path d="m159.025 425.622-71.4 71.4c-10.01 10.01-23.15 15.01-36.3 15.01-13.12 0-26.24-4.98-36.24-14.94-.02-.02-.05-.05-.07-.07-20.02-20.02-20.02-52.6 0-72.62l71.39-71.39 55.15 17.47.02.07z" fill="#873a62"/><path d="m141.575 370.552 17.45 55.07-71.4 71.4c-10.01 10.01-23.15 15.01-36.3 15.01-13.12 0-26.24-4.98-36.24-14.94z" fill="#66335b"/><path d="m177.995 355.253-31.33 31.329-10.55-10.559-10.66-10.661 31.33-31.32z" fill="#f2cecd"/><path d="m134.901 358.172h44.304v14.931h-44.304z" fill="#e8b4b5" transform="matrix(.707 -.707 .707 .707 -212.544 218.144)"/><path d="m512.035 208.102c0 55.59-21.64 107.84-60.95 147.15-39.3 39.31-91.56 60.95-147.15 60.95-55.57 0-107.81-21.63-147.11-60.91-.01-.01-.03-.03-.04-.04-39.31-39.31-60.95-91.56-60.95-147.15s21.64-107.85 60.95-147.15c39.3-39.31 91.56-60.95 147.15-60.95s107.83 21.64 147.14 60.94l.01.01c39.31 39.301 60.95 91.561 60.95 147.15z" fill="#84caff"/><path d="m512.035 208.102c0 55.59-21.64 107.84-60.95 147.15-39.3 39.31-91.56 60.95-147.15 60.95-55.57 0-107.81-21.63-147.11-60.91l294.25-294.35.01.01c39.31 39.301 60.95 91.561 60.95 147.15z" fill="#9aa3e5"/><path d="m411.345 315.513c-59.31 59.32-155.46 59.33-214.79.04-.01-.01-.03-.03-.04-.04-59.32-59.32-59.32-155.5 0-214.83 59.33-59.32 155.51-59.32 214.83 0 59.33 59.33 59.33 155.509 0 214.83z" fill="#fff0f0"/><path d="m411.345 315.513c-59.31 59.32-155.46 59.33-214.79.04l214.79-214.87c59.33 59.33 59.33 155.509 0 214.83z" fill="#f2d3d3"/><path d="m385.485 191.072c0 12.74-5.03 24.66-14.16 33.56l-67.39 65.34-41.54-40.28-25.84-25.05c-9.14-8.91-14.17-20.83-14.17-33.57 0-25.85 21.03-46.88 46.88-46.88 13.24 0 25.84 5.64 34.67 15.33 8.83-9.69 21.42-15.33 34.66-15.33 8.41 0 16.31 2.23 23.14 6.12 14.18 8.07 23.75 23.32 23.75 40.76z" fill="#ff3f5c"/><path d="m385.485 191.072c0 12.74-5.03 24.66-14.16 33.56l-67.39 65.34-41.54-40.28 99.34-99.38c14.18 8.07 23.75 23.32 23.75 40.76z" fill="#dd0056"/></g></svg>