<svg height="512pt" viewBox="0 0 512 512" width="512pt" xmlns="http://www.w3.org/2000/svg"><path d="m512 256c0 141.386719-114.613281 256-256 256s-256-114.613281-256-256 114.613281-256 256-256 256 114.613281 256 256zm0 0" fill="#80dbff"/><path d="m511.9375 260.890625-149.210938-149.210937-23.609374 16.121093-67-67.003906-150.9375 150.933594 72.539062 72.539062-99.925781 103.839844 120.492187 120.488281c13.578125 2.226563 27.507813 3.402344 41.714844 3.402344 139.75 0 253.328125-111.984375 255.9375-251.109375zm0 0" fill="#4ab8f7"/><path d="m337.558594 196.039062c0 45.046876-36.515625 81.5625-81.558594 81.5625s-81.558594-36.515624-81.558594-81.5625c0-45.042968 36.515625-81.558593 81.558594-81.558593s81.558594 36.515625 81.558594 81.558593zm0 0" fill="#4a7aff"/><path d="m256 114.480469c-.136719 0-.269531.011719-.40625.011719v163.097656c.136719 0 .269531.011718.40625.011718 45.042969 0 81.558594-36.515624 81.558594-81.5625 0-45.042968-36.515625-81.558593-81.558594-81.558593zm0 0" fill="#0053bf"/><path d="m440.902344 335.039062c0 40.53125-32.855469 73.386719-73.386719 73.386719s-73.386719-32.855469-73.386719-73.386719 32.855469-73.386718 73.386719-73.386718 73.386719 32.855468 73.386719 73.386718zm0 0" fill="#fff"/><path d="m367.515625 261.652344c-.203125 0-.40625.015625-.609375.015625v146.742187c.203125.003906.40625.019532.609375.019532 40.53125 0 73.386719-32.859376 73.386719-73.390626 0-40.527343-32.855469-73.386718-73.386719-73.386718zm0 0" fill="#dce1eb"/><path d="m399.394531 319.6875c0 17.605469-14.273437 31.878906-31.878906 31.878906s-31.878906-14.273437-31.878906-31.878906 14.273437-31.878906 31.878906-31.878906 31.878906 14.273437 31.878906 31.878906zm0 0" fill="#ffbeaa"/><path d="m367.515625 287.808594c-.203125 0-.40625.011718-.609375.015625v63.726562c.203125.003907.40625.011719.609375.011719 17.605469 0 31.878906-14.269531 31.878906-31.875s-14.273437-31.878906-31.878906-31.878906zm0 0" fill="#e09380"/><path d="m316.828125 388.109375c13.175781 12.585937 31.027344 20.320313 50.6875 20.320313s37.515625-7.734376 50.6875-20.320313c-8.070313-20.089844-27.714844-34.277344-50.6875-34.277344s-42.617187 14.1875-50.6875 34.277344zm0 0" fill="#ff7045"/><path d="m418.203125 388.109375c-8.070313-20.085937-27.714844-34.277344-50.6875-34.277344-.203125 0-.40625.007813-.609375.011719v54.570312c.203125 0 .40625.015626.609375.015626 19.660156 0 37.515625-7.734376 50.6875-20.320313zm0 0" fill="#de4726"/><path d="m217.871094 335.039062c0 40.53125-32.855469 73.386719-73.386719 73.386719s-73.386719-32.855469-73.386719-73.386719 32.855469-73.386718 73.386719-73.386718 73.386719 32.855468 73.386719 73.386718zm0 0" fill="#fff"/><path d="m144.484375 261.652344c-.265625 0-.527344.019531-.792969.019531v146.734375c.265625.003906.527344.019531.792969.019531 40.53125 0 73.386719-32.855469 73.386719-73.386719 0-40.527343-32.855469-73.386718-73.386719-73.386718zm0 0" fill="#dce1eb"/><path d="m176.363281 319.6875c0 17.605469-14.273437 31.878906-31.878906 31.878906s-31.878906-14.273437-31.878906-31.878906 14.273437-31.878906 31.878906-31.878906 31.878906 14.273437 31.878906 31.878906zm0 0" fill="#ffbeaa"/><path d="m144.484375 287.808594c-.265625 0-.53125.015625-.792969.019531v63.71875c.261719.003906.527344.019531.792969.019531 17.605469 0 31.878906-14.273437 31.878906-31.878906s-14.273437-31.878906-31.878906-31.878906zm0 0" fill="#e09380"/><path d="m93.796875 388.109375c13.171875 12.585937 31.027344 20.320313 50.6875 20.320313s37.515625-7.734376 50.6875-20.320313c-8.070313-20.089844-27.714844-34.277344-50.6875-34.277344s-42.617187 14.1875-50.6875 34.277344zm0 0" fill="#4a7aff"/><path d="m195.175781 388.109375c-8.074219-20.085937-27.71875-34.277344-50.691406-34.277344-.265625 0-.527344.011719-.792969.015625v54.558594c.265625.003906.527344.023438.792969.023438 19.660156 0 37.515625-7.734376 50.691406-20.320313zm0 0" fill="#0053bf"/><path d="m295.019531 176.148438c0-21.644532-17.621093-39.171876-39.300781-39.019532-21.507812.152344-39.144531 18.277344-38.734375 39.78125.164063 8.472656 3.027344 16.285156 7.765625 22.609375 6.851562 9.144531 11.882812 19.523438 14.480469 30.652344l1.863281 7.988281h29.8125l1.863281-7.988281c2.601563-11.144531 7.652344-21.519531 14.503907-30.683594 4.867187-6.511719 7.746093-14.589843 7.746093-23.339843zm0 0" fill="#ffce00"/><path d="m255.71875 137.128906c-.039062 0-.082031.003906-.121094.003906v101.027344h15.308594l1.867188-7.988281c2.597656-11.144531 7.652343-21.519531 14.5-30.683594 4.867187-6.511719 7.75-14.589843 7.75-23.339843-.003907-21.644532-17.625-39.171876-39.304688-39.019532zm0 0" fill="#ffb600"/><path d="m265.746094 247.753906h-19.492188l-7.128906-73.730468h33.75zm-14.347656-62.589844 4.601562 47.605469 4.601562-47.605469zm0 0" fill="#feec65"/><path d="m272.875 174.023438h-17.28125v11.140624h5.007812l-4.601562 47.605469-.40625-4.191406v19.175781h10.152344zm0 0" fill="#fcd748"/><path d="m259.839844 261.992188h-7.679688c-6.113281 0-11.066406-4.957032-11.066406-11.066407v-12.765625h29.8125v12.765625c0 6.109375-4.953125 11.066407-11.066406 11.066407zm0 0" fill="#fff"/><path d="m270.90625 238.160156h-15.3125v23.832032h4.246094c6.113281 0 11.066406-4.953126 11.066406-11.066407zm0 0" fill="#dce1eb"/><path d="m390.820312 211.730469v-32.230469l-24.871093-4.101562c-2.890625-15.824219-9.113281-30.480469-17.917969-43.222657l14.695312-20.496093-22.789062-22.789063-20.496094 14.691406c-12.742187-8.800781-27.402344-15.023437-43.226562-17.917969l-4.097656-24.867187h-32.230469l-4.101563 24.867187c-15.824218 2.894532-30.480468 9.117188-43.226562 17.917969l-20.492188-14.691406-22.792968 22.789063 14.695312 20.496093c-8.800781 12.742188-15.027344 27.398438-17.917969 43.222657l-24.867187 4.101562v32.230469l24.867187 4.097656c2.890625 15.828125 9.117188 30.484375 17.917969 43.226563l-14.695312 20.496093 22.792968 22.789063 20.492188-14.691406c12.746094 8.800781 27.402344 15.023437 43.226562 17.914062l4.101563 24.871094h32.230469l4.097656-24.871094c15.824218-2.890625 30.484375-9.113281 43.226562-17.914062l20.496094 14.691406 22.789062-22.789063-14.695312-20.496093c8.804688-12.742188 15.027344-27.402344 17.917969-43.226563zm-209.257812-16.113281c0-41.109376 33.328125-74.4375 74.4375-74.4375s74.4375 33.324218 74.4375 74.4375c0 41.109374-33.328125 74.433593-74.4375 74.433593s-74.4375-33.324219-74.4375-74.433593zm0 0" fill="#555a66"/><path d="m365.949219 175.398438c-2.890625-15.824219-9.113281-30.480469-17.917969-43.222657l14.695312-20.496093-22.792968-22.792969-20.492188 14.695312c-12.746094-8.800781-27.402344-15.027343-43.226562-17.917969l-4.097656-24.867187h-16.523438v60.390625c.136719 0 .269531-.007812.40625-.007812 41.109375 0 74.4375 33.324218 74.4375 74.4375 0 41.109374-33.328125 74.433593-74.4375 74.433593-.136719 0-.269531-.007812-.40625-.007812v60.390625h16.523438l4.097656-24.867188c15.824218-2.890625 30.480468-9.117187 43.226562-17.917968l20.492188 14.695312 22.792968-22.792969-14.695312-20.492187c8.800781-12.746094 15.027344-27.402344 17.917969-43.226563l24.867187-4.097656v-32.234375zm0 0" fill="#333940"/></svg>