<svg id="Capa_1" enable-background="new 0 0 512 512" height="512" viewBox="0 0 512 512" width="512" xmlns="http://www.w3.org/2000/svg"><g><path d="m64.797 366.473h382.406c.059.18 47.241 143.822 47.801 145.527h-478.008c.566-1.728 47.436-144.414 47.801-145.527z" fill="#e4f3ff"/><path d="m166.771 456.764v-31.867c-9.681 0-106.886 0-121.166 0-3.454 10.518-7.043 21.443-10.467 31.867z" fill="#84d9f3"/><path d="m447.203 366.473c-261.913 0 65.024.021-191.186-.045 0 .121-.017 145.418-.017 145.572h239.004c-.825-2.52-47.766-145.42-47.801-145.527z" fill="#c3dafd"/><path d="m345.228 456.764h131.633c-3.424-10.424-7.013-21.35-10.467-31.867-13.075 0-109.106 0-121.166 0z" fill="#77b0fb"/><path d="m256 0c100.434 0 175.27 74.836 175.27 175.27 0 117.562-102.954 155.811-175.27 254.938-72.282-99.097-175.27-137.39-175.27-254.938 0-100.434 74.868-175.27 175.27-175.27zm47.801 181.856c0-26.333-21.469-47.801-47.801-47.801-26.334 0-47.801 21.468-47.801 47.801 0 26.322 21.467 47.801 47.801 47.801 26.332 0 47.801-21.478 47.801-47.801z" fill="#dc4c69"/><path d="m256 0v134.056c26.332 0 47.801 21.468 47.801 47.801 0 26.322-21.469 47.801-47.801 47.801v200.55c72.315-99.127 175.27-137.375 175.27-254.938 0-100.434-74.836-175.27-175.27-175.27z" fill="#c21d75"/></g></svg>