<svg height="512pt" viewBox="0 0 512 512" width="512pt" xmlns="http://www.w3.org/2000/svg"><path d="m512 256c0 141.386719-114.613281 256-256 256s-256-114.613281-256-256 114.613281-256 256-256 256 114.613281 256 256zm0 0" fill="#80dbff"/><path d="m310.363281 506.195312c104.332031-22.5625 184.972657-108.707031 199.335938-215.855468l-87.027344-87.03125-12.613281 21.042968-104.851563-104.847656-186.742187 194.789063zm0 0" fill="#4ab8f7"/><path d="m449.460938 262c0 42.902344-34.78125 77.683594-77.683594 77.683594s-77.683594-34.78125-77.683594-77.683594 34.78125-77.683594 77.683594-77.683594 77.683594 34.78125 77.683594 77.683594zm0 0" fill="#fff"/><path d="m371.777344 184.316406c-.039063 0-.074219.003906-.109375.003906v155.359376c.035156 0 .070312.003906.109375.003906 42.902344 0 77.683594-34.78125 77.683594-77.683594s-34.78125-77.683594-77.683594-77.683594zm0 0" fill="#dce1eb"/><path d="m405.519531 245.746094c0 18.636718-15.105469 33.746094-33.742187 33.746094-18.636719 0-33.746094-15.109376-33.746094-33.746094 0-18.632813 15.109375-33.742188 33.746094-33.742188 18.636718 0 33.742187 15.109375 33.742187 33.742188zm0 0" fill="#ffbeaa"/><path d="m371.777344 212.003906c-.039063 0-.074219.003906-.109375.003906v67.480469c.035156 0 .070312.003907.109375.003907 18.636718 0 33.742187-15.105469 33.742187-33.746094 0-18.632813-15.105469-33.742188-33.742187-33.742188zm0 0" fill="#e09380"/><path d="m318.121094 318.175781c13.945312 13.324219 32.84375 21.507813 53.65625 21.507813 20.808594 0 39.710937-8.183594 53.65625-21.507813-8.546875-21.265625-29.339844-36.285156-53.65625-36.285156-24.320313 0-45.113282 15.019531-53.65625 36.285156zm0 0" fill="#ffce00"/><path d="m425.433594 318.175781c-8.546875-21.265625-29.339844-36.285156-53.65625-36.285156-.039063 0-.074219 0-.113282 0v57.789063c.039063 0 .074219.003906.113282.003906 20.8125 0 39.710937-8.183594 53.65625-21.507813zm0 0" fill="#ffb600"/><path d="m260.90625 320.902344 53.03125-53.03125 108.726562 108.726562-53.03125 53.03125zm0 0" fill="#2864f0"/><path d="m286.878906 294.929688 27.058594-27.0625 108.726562 108.726562-27.058593 27.0625zm0 0" fill="#27488f"/><path d="m346.761719 216.898438c0 74.515624-60.40625 134.925781-134.925781 134.925781-74.515626 0-134.925782-60.410157-134.925782-134.925781 0-74.519532 60.410156-134.925782 134.925782-134.925782 74.519531 0 134.925781 60.40625 134.925781 134.925782zm0 0" fill="#555a66"/><path d="m346.761719 216.898438c0-74.519532-60.40625-134.925782-134.925781-134.925782-38.019532 0-72.355469 15.730469-96.882813 41.027344l190.777344 190.78125c25.300781-24.527344 41.03125-58.867188 41.03125-96.882812zm0 0" fill="#333940"/><path d="m305.207031 216.898438c0 51.566406-41.804687 93.371093-93.371093 93.371093-51.566407 0-93.371094-41.804687-93.371094-93.371093 0-51.570313 41.804687-93.371094 93.371094-93.371094 51.566406 0 93.371093 41.800781 93.371093 93.371094zm0 0" fill="#fff"/><path d="m211.835938 123.527344c-.296876 0-.589844.007812-.882813.007812v186.722656c.292969.003907.585937.011719.882813.011719 51.566406 0 93.371093-41.804687 93.371093-93.371093 0-51.570313-41.804687-93.371094-93.371093-93.371094zm0 0" fill="#dce1eb"/><path d="m252.394531 197.363281c0 22.402344-18.160156 40.558594-40.558593 40.558594-22.398438 0-40.558594-18.15625-40.558594-40.558594 0-22.398437 18.160156-40.558593 40.558594-40.558593 22.398437 0 40.558593 18.160156 40.558593 40.558593zm0 0" fill="#ffbeaa"/><path d="m211.835938 156.804688c-.296876 0-.589844.015624-.882813.023437v81.070313c.292969.007812.585937.023437.882813.023437 22.398437 0 40.558593-18.160156 40.558593-40.558594 0-22.398437-18.160156-40.558593-40.558593-40.558593zm0 0" fill="#e09380"/><path d="m147.34375 284.417969c16.761719 16.015625 39.476562 25.851562 64.492188 25.851562 25.015624 0 47.730468-9.835937 64.492187-25.851562-10.269531-25.558594-35.261719-43.613281-64.492187-43.613281-29.230469 0-54.222657 18.054687-64.492188 43.613281zm0 0" fill="#ffce00"/><path d="m276.328125 284.414062c-10.269531-25.554687-35.261719-43.609374-64.492187-43.609374-.296876 0-.589844.011718-.882813.015624v69.4375c.292969.003907.585937.011719.882813.011719 25.015624 0 47.730468-9.835937 64.492187-25.855469zm0 0" fill="#ffb600"/></svg>