<svg height="512pt" viewBox="0 0 512 512" width="512pt" xmlns="http://www.w3.org/2000/svg"><path d="m512 256c0 141.386719-114.613281 256-256 256s-256-114.613281-256-256 114.613281-256 256-256 256 114.613281 256 256zm0 0" fill="#4a7aff"/><path d="m512 256c0-17.710938-1.800781-35-5.222656-51.695312l-83.9375-83.9375-333.453125 230.894531 91.96875 91.96875-5.882813 9.90625 57.855469 57.851562c7.472656.65625 15.027344 1.011719 22.671875 1.011719 141.386719 0 256-114.613281 256-256zm0 0" fill="#0053bf"/><path d="m196.445312 347.367188h119.109376v90.472656h-119.109376zm0 0" fill="#dce1eb"/><path d="m255.59375 347.367188h59.960938v90.472656h-59.960938zm0 0" fill="#bec3d2"/><path d="m401.730469 360.667969h-291.460938c-15.410156 0-27.902343-12.492188-27.902343-27.902344v-194.160156c0-15.410157 12.492187-27.90625 27.902343-27.90625h291.460938c15.410156 0 27.90625 12.496093 27.90625 27.90625v194.160156c-.003907 15.410156-12.496094 27.902344-27.90625 27.902344zm0 0" fill="#fff"/><path d="m401.730469 360.667969h-291.460938c-15.410156 0-27.902343-12.492188-27.902343-27.902344v-194.160156c0-15.410157 12.492187-27.90625 27.902343-27.90625h291.460938c15.410156 0 27.90625 12.496093 27.90625 27.90625v194.160156c-.003907 15.410156-12.496094 27.902344-27.90625 27.902344zm0 0" fill="#fff"/><path d="m401.730469 110.699219h-146.136719v249.96875h146.136719c15.410156 0 27.902343-12.492188 27.902343-27.902344v-194.160156c.003907-15.414063-12.492187-27.90625-27.902343-27.90625zm0 0" fill="#dce1eb"/><path d="m100.820312 132.511719h310.359376v172.792969h-310.359376zm0 0" fill="#80dbff"/><path d="m255.59375 132.511719h155.585938v172.792969h-155.585938zm0 0" fill="#4ab8f7"/><path d="m175.472656 417.707031h161.054688v35.429688h-161.054688zm0 0" fill="#fff"/><path d="m255.59375 417.707031h80.933594v35.429688h-80.933594zm0 0" fill="#dce1eb"/><path d="m119.582031 164.386719h241.578125v32.003906h-241.578125zm0 0" fill="#555a66"/><path d="m255.59375 164.386719h105.566406v32.003906h-105.566406zm0 0" fill="#333940"/><path d="m119.582031 227.636719h136.011719v32.003906h-136.011719zm0 0" fill="#ff7045"/><path d="m233.277344 227.636719h68.207031v32.003906h-68.207031zm0 0" fill="#de4726"/><path d="m255.59375 227.636719h45.890625v32.003906h-45.890625zm0 0" fill="#c42f12"/></svg>